<svg width="45" height="45" viewBox="0 0 45 45" fill="none" xmlns="http://www.w3.org/2000/svg">
<rect width="45" height="45" rx="4.6962" fill="url(#paint0_linear_427_33970)"/>
<g clip-path="url(#clip0_427_33970)">
<path d="M19.3582 33.235C18.8817 32.4149 18.0837 31.8608 17.1195 31.6834C16.8978 31.6391 16.6762 31.6169 16.4545 31.6169C14.77 31.6169 13.1297 32.7696 12.5534 34.443C12.2098 35.4516 12.2985 36.5155 12.7972 37.3689C13.2738 38.2001 14.0717 38.7432 15.0359 38.9205C15.1911 38.9537 15.3463 38.9648 15.4903 38.9759C17.2414 39.0756 18.9925 37.9009 19.591 36.1498C19.9456 35.1523 19.8569 34.0884 19.3582 33.235ZM17.1306 35.3075C16.8978 35.9946 16.1331 36.4823 15.5014 36.3714C15.2908 36.3271 15.1357 36.2385 15.047 36.0722C14.9362 35.8727 14.9251 35.5957 15.0249 35.3075C15.2576 34.6315 16.0112 34.1327 16.6429 34.2546C16.8535 34.2879 17.0087 34.3876 17.0973 34.5539C17.2192 34.7534 17.2303 35.0304 17.1306 35.3075Z" fill="white"/>
<path d="M35.1297 29.2751C34.6754 28.5769 33.955 28.1336 33.1016 28.0227C32.9686 28.0117 32.8245 27.9895 32.6915 27.9895C31.151 27.9895 29.6881 29.0978 29.2337 30.6604C28.9788 31.5581 29.1007 32.478 29.5773 33.2095C30.0317 33.9077 30.752 34.351 31.6054 34.4618C31.7384 34.4729 31.8825 34.484 32.0155 34.4951C33.556 34.4951 35.03 33.3979 35.4733 31.8241C35.7393 30.9375 35.6063 30.0066 35.1297 29.2751ZM33.2789 31.1924C33.1127 31.802 32.4699 32.2674 31.9047 32.201C31.7162 32.1788 31.5833 32.0901 31.4946 31.9571C31.3838 31.7909 31.3616 31.5471 31.4281 31.2922C31.6054 30.6826 32.2371 30.2171 32.8024 30.2836C32.9908 30.3058 33.1238 30.3945 33.2124 30.5275C33.3343 30.7048 33.3565 30.9375 33.2789 31.1924Z" fill="white"/>
<path d="M37.246 24.6868C29.8759 23.6228 21.2203 24.2324 15.014 25.6731C14.6704 25.7507 14.4044 25.3739 14.6039 25.0747L23.9577 10.7668C25.0771 9.17091 24.1683 7.77448 22.7386 7.79665H11.268V8.32862C11.2791 9.42581 12.1768 10.3124 13.285 10.3014L19.6909 10.2903C19.9679 10.2903 20.0566 10.5452 19.9125 10.7668L7.93207 29.0977C7.67717 29.6962 7.788 30.3722 8.20914 30.8599C8.50838 31.2034 8.94061 31.414 9.38392 31.4362C9.56124 31.4473 9.73856 31.4251 9.91589 31.3808C10.0821 31.3364 22.5613 25.2298 36.9578 27.0585C37.8888 27.1693 38.6646 27.3577 38.6646 27.3577C38.7976 26.4378 38.587 24.8863 37.246 24.6868Z" fill="white"/>
</g>
<defs>
<linearGradient id="paint0_linear_427_33970" x1="2.03007" y1="9.71591" x2="41.2143" y2="41.6111" gradientUnits="userSpaceOnUse">
<stop stop-color="#60A744"/>
<stop offset="1" stop-color="#76CC33"/>
</linearGradient>
<clipPath id="clip0_427_33970">
<rect width="32.0061" height="32.0061" fill="white" transform="translate(7.79639 7.79639)"/>
</clipPath>
</defs>
</svg>
