<svg width="172" height="1030" viewBox="0 0 172 1030" fill="none" xmlns="http://www.w3.org/2000/svg">
<g opacity="0.6">
<path d="M80.7545 418.811C80.2139 396.922 62.0148 379.641 40.1038 380.181C18.1927 380.721 0.894538 398.902 1.4351 420.792C1.97567 442.681 20.1748 459.962 42.0858 459.422C63.9969 458.882 81.2951 440.701 80.7545 418.811ZM30.9501 399.766C30.842 394.906 34.6981 390.838 39.5632 390.73C44.4283 390.622 48.5006 394.474 48.6087 399.334C48.7168 404.195 44.8608 408.263 39.9957 408.371C35.1305 408.515 31.0943 404.663 30.9501 399.766ZM10.6608 419.747C10.5527 414.887 14.4088 410.819 19.2739 410.711C24.139 410.603 28.2113 414.455 28.3194 419.315C28.4275 424.176 24.5714 428.244 19.7063 428.352C14.8052 428.46 10.7689 424.644 10.6608 419.747ZM51.1674 418.739C51.0593 413.879 54.9153 409.811 59.7805 409.703C64.6456 409.595 68.7179 413.447 68.826 418.307C68.9341 423.168 65.078 427.236 60.2129 427.344C55.3478 427.452 51.2755 423.6 51.1674 418.739ZM31.9592 439.909C31.8511 435.048 35.7071 430.98 40.5723 430.872C45.4374 430.764 49.5097 434.616 49.6178 439.477C49.7259 444.337 45.8698 448.405 41.0047 448.513C36.1396 448.621 32.1034 444.769 31.9592 439.909Z" fill="#E2E2E2"/>
<path d="M40.9324 371.181C57.3296 371.181 71.8169 379.281 80.6101 391.702L80.6101 251.906C80.6101 230.089 62.9155 212.412 41.0765 212.412C19.2376 212.412 1.54298 230.089 1.54297 251.906L1.54297 391.234C10.4443 379.065 24.7514 371.181 40.9324 371.181Z" fill="#E2E2E2"/>
<path d="M119.8 95.4098C145.12 95.4098 165.645 74.9048 165.645 49.6107C165.645 24.3165 145.12 3.81152 119.8 3.81152C94.481 3.81152 73.9556 24.3165 73.9556 49.6107C73.9556 74.9048 94.481 95.4098 119.8 95.4098Z" fill="#EAEAEA"/>
<path d="M43.7337 202.189H60.552L60.552 118.864C60.552 94.77 41.0018 75.2393 16.8842 75.2393H0.065918L0.065918 158.565C0.065918 182.658 19.6161 202.189 43.7337 202.189Z" fill="#DADADA"/>
<path d="M30.2018 64.2374H60.5942V33.9178C60.5942 17.2869 47.1054 3.81152 30.4579 3.81152L0.0654297 3.81152L0.0654297 34.1737C0.0654297 50.762 13.5542 64.2374 30.2018 64.2374Z" fill="#EFEFEF"/>
<path d="M75.8765 108.757L122.66 108.757C148.485 108.757 169.444 129.652 169.444 155.494C169.444 181.293 148.528 202.231 122.66 202.231C96.8353 202.231 75.8765 181.336 75.8765 155.494L75.8765 108.757Z" fill="#E2E2E2"/>
<path d="M169.299 841.822C167.93 886.861 131.748 923.187 86.7004 924.807C87.9257 879.66 124.18 843.262 169.299 841.822Z" fill="#EAEAEA"/>
<path d="M2.37183 841.822C3.74127 886.861 39.9233 923.187 84.9707 924.807C83.7454 879.66 47.4913 843.262 2.37183 841.822Z" fill="#DADADA"/>
<path d="M169.299 758.549C167.93 803.587 131.748 839.913 86.7004 841.533C87.9257 796.423 124.18 760.025 169.299 758.549Z" fill="#EFEFEF"/>
<path d="M2.37183 758.549C3.74127 803.587 39.9233 839.913 84.9707 841.533C83.7454 796.423 47.4913 760.025 2.37183 758.549Z" fill="#E2E2E2"/>
<path d="M95.7097 261.519L95.7097 212.412C136.324 212.412 169.227 245.282 169.227 285.856L169.227 334.963C128.612 334.963 95.7097 302.093 95.7097 261.519Z" fill="#EFEFEF"/>
<path d="M108.684 441.205L108.684 364.449C108.684 357.032 112.035 350.48 117.189 345.979C105.116 346.232 95.4218 356.06 95.4218 368.157L95.4218 437.497C95.4218 449.593 105.116 459.422 117.189 459.674C112.035 455.174 108.684 448.621 108.684 441.205Z" fill="#DADADA"/>
<path d="M116.144 440.197L116.144 365.492C116.144 354.692 124.901 345.943 135.712 345.943L149.443 345.943C160.254 345.943 169.011 354.692 169.011 365.492L169.011 440.197C169.011 450.997 160.254 459.746 149.443 459.746L135.748 459.746C124.937 459.746 116.144 450.997 116.144 440.197Z" fill="#DADADA"/>
<path d="M94.9896 523.397L94.9896 496.576C94.9896 487.467 102.377 480.123 111.459 480.123L140.001 480.123C156.146 480.123 169.264 493.192 169.264 509.357L169.264 536.178C169.264 545.287 161.876 552.631 152.794 552.631L124.252 552.631C108.107 552.595 94.9896 539.526 94.9896 523.397Z" fill="#E2E2E2"/>
<path d="M1.43475 519.905C1.43475 541.916 19.2959 559.759 41.3287 559.759C63.3615 559.759 81.2227 541.916 81.2227 519.905C81.2227 497.894 63.3615 480.051 41.3287 480.051C19.2959 480.051 1.43475 497.894 1.43475 519.905Z" fill="#EAEAEA"/>
<path d="M167.539 712.129C160.478 696.248 148.881 682.889 134.404 673.55C128.487 679.461 123.162 686.081 118.507 693.45C117.442 695.145 116.614 696.445 114.602 696.445C112.669 696.445 111.092 694.869 111.092 692.938C111.092 692.032 111.447 691.165 112.038 690.534C112.157 690.337 112.354 690.061 112.591 689.707C117.166 682.417 122.413 675.796 128.172 669.885C122.61 666.93 116.732 664.526 110.539 662.792C99.2972 670.87 89.7119 681.156 81.9805 693.49C80.9154 695.184 80.087 696.485 78.0752 696.485C76.1424 696.485 74.5646 694.909 74.5646 692.978C74.5646 692.071 74.9195 691.204 75.5112 690.574C75.6296 690.377 75.8268 690.101 76.0241 689.746C83.1244 678.436 91.7236 668.782 101.625 660.782C96.6938 659.915 91.6053 659.442 86.4379 659.442C84.2683 659.442 82.0988 659.521 79.9687 659.679C66.7542 668.191 55.6305 679.54 46.834 693.49C45.7689 695.184 44.9405 696.485 42.9287 696.485C40.9959 696.485 39.4181 694.909 39.4181 692.978C39.4181 692.071 39.7731 691.204 40.3648 690.574C40.4831 690.377 40.6804 690.101 40.9171 689.746C47.6229 679.106 55.6305 669.885 64.8214 662.161C38.1558 668.861 16.2633 687.539 5.29726 712.169C-1.13245 726.631 9.51798 742.906 25.3753 742.906L147.579 742.906C163.318 742.867 173.969 726.552 167.539 712.129Z" fill="#EAEAEA"/>
<path d="M3.66968 624.509L3.66968 646.296L111.815 646.296C143.083 646.296 168.421 620.984 168.421 589.746L168.421 567.959L60.276 567.959C29.0074 567.959 3.66968 593.271 3.66968 624.509Z" fill="#E2E2E2"/>
<path d="M169.568 1023.38C169.612 1022.47 169.655 1021.55 169.655 1020.63C169.655 972.739 132.564 933.893 86.7682 933.893C40.9725 933.893 3.8811 972.739 3.8811 1020.63C3.8811 1021.55 3.92486 1022.47 3.9686 1023.38L169.568 1023.38Z" fill="#EAEAEA"/>
<path d="M134.269 979.074C133.963 989.43 125.609 997.776 115.286 998.17C115.549 987.77 123.903 979.424 134.269 979.074Z" fill="white"/>
<path d="M89.6988 960.242C96.8284 967.802 96.8284 979.6 89.7863 987.159C82.6567 979.6 82.6129 967.802 89.6988 960.242Z" fill="white"/>
<path d="M44.8647 978.375C55.2311 978.681 63.5855 987.027 63.9791 997.339C53.6128 997.077 45.2147 988.731 44.8647 978.375Z" fill="white"/>
</g>
</svg>
