<svg width="20" height="21" viewBox="0 0 20 21" fill="none" xmlns="http://www.w3.org/2000/svg">
<path d="M3.25 6.4707H4.75H16.75" stroke="#DA1414" stroke-width="1.25" stroke-linecap="round" stroke-linejoin="round"/>
<path d="M15.25 6.4707V16.9707C15.25 17.3685 15.092 17.7501 14.8107 18.0314C14.5294 18.3127 14.1478 18.4707 13.75 18.4707H6.25C5.85218 18.4707 5.47064 18.3127 5.18934 18.0314C4.90804 17.7501 4.75 17.3685 4.75 16.9707V6.4707M7 6.4707V4.9707C7 4.57288 7.15804 4.19135 7.43934 3.91004C7.72064 3.62874 8.10218 3.4707 8.5 3.4707H11.5C11.8978 3.4707 12.2794 3.62874 12.5607 3.91004C12.842 4.19135 13 4.57288 13 4.9707V6.4707" stroke="#DA1414" stroke-width="1.25" stroke-linecap="round" stroke-linejoin="round"/>
<path d="M8.5 10.2207V14.7207" stroke="#DA1414" stroke-width="1.25" stroke-linecap="round" stroke-linejoin="round"/>
<path d="M11.5 10.2207V14.7207" stroke="#DA1414" stroke-width="1.25" stroke-linecap="round" stroke-linejoin="round"/>
</svg>
