<svg width="20" height="20" viewBox="0 0 20 20" fill="none" xmlns="http://www.w3.org/2000/svg">
<path d="M1.94287 10.6241V5.52981C1.94287 4.77323 2.54813 4.16797 3.30471 4.16797H10.8201C11.5766 4.16797 12.1819 4.77323 12.1819 5.52981V14.5583H8.49989" stroke="white" stroke-width="1.5" stroke-miterlimit="10" stroke-linecap="round" stroke-linejoin="round"/>
<path d="M17.125 14.6082C17.8815 14.6082 18.4868 14.0029 18.4868 13.2464V9.91742C18.4868 9.66523 18.3859 9.41303 18.2346 9.21128L15.9144 6.68935C15.7127 6.4876 15.4605 6.38672 15.1579 6.38672H12.2324V14.6082" stroke="white" stroke-width="1.5" stroke-miterlimit="10" stroke-linecap="round" stroke-linejoin="round"/>
<path d="M6.73459 16.3745C7.70957 16.3745 8.49994 15.5841 8.49994 14.6091C8.49994 13.6341 7.70957 12.8438 6.73459 12.8438C5.75961 12.8438 4.96924 13.6341 4.96924 14.6091C4.96924 15.5841 5.75961 16.3745 6.73459 16.3745Z" stroke="white" stroke-width="1.5" stroke-miterlimit="10" stroke-linecap="round" stroke-linejoin="round"/>
<path d="M14.3005 16.3745C15.2755 16.3745 16.0659 15.5841 16.0659 14.6091C16.0659 13.6341 15.2755 12.8438 14.3005 12.8438C13.3255 12.8438 12.5352 13.6341 12.5352 14.6091C12.5352 15.5841 13.3255 16.3745 14.3005 16.3745Z" stroke="white" stroke-width="1.5" stroke-miterlimit="10" stroke-linecap="round" stroke-linejoin="round"/>
<path d="M1.94287 14.6094H4.91875" stroke="white" stroke-width="1.5" stroke-miterlimit="10" stroke-linecap="round" stroke-linejoin="round"/>
<path d="M0.833496 10.6211H5.37297" stroke="white" stroke-width="1.5" stroke-miterlimit="10" stroke-linecap="round" stroke-linejoin="round"/>
</svg>
