<svg width="32" height="33" viewBox="0 0 32 33" fill="none" xmlns="http://www.w3.org/2000/svg">
<path d="M3.10876 17.4939V9.34301C3.10876 8.13248 4.07719 7.16406 5.28771 7.16406H17.3123C18.5228 7.16406 19.4912 8.13248 19.4912 9.34301V23.7886H13.6" stroke="#808080" stroke-width="2.28571" stroke-miterlimit="10" stroke-linecap="round" stroke-linejoin="round"/>
<path d="M27.4001 23.8731C28.6106 23.8731 29.579 22.9047 29.579 21.6942V16.3679C29.579 15.9644 29.4176 15.5609 29.1755 15.238L25.4632 11.203C25.1404 10.8802 24.7369 10.7188 24.2527 10.7188H19.572V23.8731" stroke="#808080" stroke-width="2.28571" stroke-miterlimit="10" stroke-linecap="round" stroke-linejoin="round"/>
<path d="M10.7755 26.6999C12.3355 26.6999 13.6001 25.4353 13.6001 23.8753C13.6001 22.3154 12.3355 21.0508 10.7755 21.0508C9.21553 21.0508 7.95093 22.3154 7.95093 23.8753C7.95093 25.4353 9.21553 26.6999 10.7755 26.6999Z" stroke="#808080" stroke-width="2.28571" stroke-miterlimit="10" stroke-linecap="round" stroke-linejoin="round"/>
<path d="M22.8806 26.6999C24.4406 26.6999 25.7052 25.4353 25.7052 23.8753C25.7052 22.3154 24.4406 21.0508 22.8806 21.0508C21.3206 21.0508 20.056 22.3154 20.056 23.8753C20.056 25.4353 21.3206 26.6999 22.8806 26.6999Z" stroke="#808080" stroke-width="2.28571" stroke-miterlimit="10" stroke-linecap="round" stroke-linejoin="round"/>
<path d="M3.10876 23.8711H7.87017" stroke="#808080" stroke-width="2.28571" stroke-miterlimit="10" stroke-linecap="round" stroke-linejoin="round"/>
<path d="M1.33325 17.4961H8.59641" stroke="#808080" stroke-width="2.28571" stroke-miterlimit="10" stroke-linecap="round" stroke-linejoin="round"/>
</svg>
