<svg width="250" height="250" viewBox="0 0 250 250" fill="none" xmlns="http://www.w3.org/2000/svg">
<path d="M171.876 97.9219L78.126 43.8594" stroke="#F2F2F2" stroke-width="15.3809" stroke-linecap="round" stroke-linejoin="round"/>
<path d="M218.75 166.679V83.3458C218.746 79.6924 217.782 76.1043 215.954 72.9413C214.125 69.7783 211.497 67.1517 208.333 65.325L135.417 23.6583C132.25 21.8298 128.657 20.8672 125 20.8672C121.343 20.8672 117.75 21.8298 114.583 23.6583L41.6667 65.325C38.5027 67.1517 35.8748 69.7783 34.0465 72.9413C32.2182 76.1043 31.2537 79.6924 31.25 83.3458V166.679C31.2537 170.333 32.2182 173.921 34.0465 177.084C35.8748 180.247 38.5027 182.873 41.6667 184.7L114.583 226.367C117.75 228.195 121.343 229.158 125 229.158C128.657 229.158 132.25 228.195 135.417 226.367L208.333 184.7C211.497 182.873 214.125 180.247 215.954 177.084C217.782 173.921 218.746 170.333 218.75 166.679Z" stroke="#F2F2F2" stroke-width="15.3809" stroke-linecap="round" stroke-linejoin="round"/>
<path d="M34.0635 72.5L125.001 125.104L215.938 72.5" stroke="#F2F2F2" stroke-width="15.3809" stroke-linecap="round" stroke-linejoin="round"/>
<path d="M125 230.008V125.008" stroke="#F2F2F2" stroke-width="15.3809" stroke-linecap="round" stroke-linejoin="round"/>
</svg>
