<svg width="430" height="47" viewBox="0 0 430 47" fill="none" xmlns="http://www.w3.org/2000/svg">
<g clip-path="url(#clip0_212_32267)">
<path d="M99.8401 24.5601C93.7601 24.7101 88.9601 29.7601 89.1101 35.8401C89.2601 41.9201 94.3101 46.7201 100.39 46.5701C106.47 46.4201 111.27 41.3701 111.12 35.2901C110.97 29.2101 105.92 24.4101 99.8401 24.5601ZM94.5501 38.3801C93.2001 38.4101 92.0701 37.3401 92.0401 35.9901C92.0101 34.6401 93.0801 33.5101 94.4301 33.4801C95.7801 33.4501 96.9101 34.5201 96.9401 35.8701C96.9801 37.2201 95.9101 38.3401 94.5501 38.3801ZM100.1 44.0101C98.7501 44.0401 97.6201 42.9701 97.5901 41.6201C97.5601 40.2701 98.6301 39.1401 99.9801 39.1101C101.33 39.0801 102.46 40.1501 102.49 41.5001C102.52 42.8601 101.46 43.9801 100.1 44.0101ZM99.8201 32.7701C98.4701 32.8001 97.3401 31.7301 97.3101 30.3801C97.2801 29.0301 98.3501 27.9001 99.7001 27.8701C101.05 27.8401 102.18 28.9101 102.21 30.2601C102.24 31.6101 101.17 32.7401 99.8201 32.7701ZM105.7 38.1001C104.35 38.1301 103.22 37.0601 103.19 35.7101C103.16 34.3601 104.23 33.2301 105.58 33.2001C106.93 33.1701 108.06 34.2401 108.09 35.5901C108.12 36.9401 107.05 38.0601 105.7 38.1001Z" fill="#F4777C"/>
<path d="M86.61 35.6101C86.61 31.0601 88.86 27.0401 92.31 24.6001H53.48C47.42 24.6001 42.51 29.5101 42.51 35.5701C42.51 41.6301 47.42 46.5401 53.48 46.5401H92.18C88.8 44.0701 86.61 40.1001 86.61 35.6101Z" fill="#F4777C"/>
<path d="M28.0501 21.49C33.9816 21.49 38.7901 16.6815 38.7901 10.75C38.7901 4.81847 33.9816 0.0100098 28.0501 0.0100098C22.1185 0.0100098 17.3101 4.81847 17.3101 10.75C17.3101 16.6815 22.1185 21.49 28.0501 21.49Z" fill="#FAA51A"/>
<path d="M10.23 46.53H14.17V26.99C14.17 21.34 9.59 16.76 3.94 16.76H0V36.3C0 41.95 4.58 46.53 10.23 46.53Z" fill="#2AB674"/>
<path d="M7.06 14.18H14.18V7.07001C14.18 3.17001 11.02 0.0100098 7.12 0.0100098H0V7.13001C0 11.02 3.16 14.18 7.06 14.18Z" fill="#D6DF2A"/>
<path d="M17.76 24.6201H28.72C34.77 24.6201 39.68 29.5201 39.68 35.5801C39.68 41.6301 34.78 46.5401 28.72 46.5401C22.67 46.5401 17.76 41.6401 17.76 35.5801V24.6201Z" fill="#8DC543"/>
<path d="M247.21 46.53C253.142 46.53 257.95 41.7216 257.95 35.7901C257.95 29.8585 253.142 25.05 247.21 25.05C241.278 25.05 236.47 29.8585 236.47 35.7901C236.47 41.7216 241.278 46.53 247.21 46.53Z" fill="#2AB674"/>
<path d="M265.03 0.0100098H261.09V19.56C261.09 25.21 265.67 29.79 271.32 29.79H275.26V10.24C275.26 4.59001 270.68 0.0100098 265.03 0.0100098Z" fill="#2AB674"/>
<path d="M268.2 32.3601H261.08V39.4801C261.08 43.3801 264.24 46.5401 268.14 46.5401H275.26V39.4201C275.26 35.5201 272.1 32.3601 268.2 32.3601Z" fill="#D6DF2A"/>
<path d="M257.5 21.92H246.54C240.49 21.92 235.58 17.02 235.58 10.96C235.58 4.91 240.48 0 246.54 0C252.59 0 257.5 4.9 257.5 10.96V21.92Z" fill="#8DC543"/>
<path d="M182.64 46.56C182.65 46.34 182.66 46.11 182.66 45.89C182.66 34.06 173.51 24.47 162.22 24.47C150.93 24.47 141.78 34.06 141.78 45.89C141.78 46.12 141.79 46.34 141.8 46.56H182.64Z" fill="#2AB674"/>
<path d="M231.76 23.1899C231.38 35.6999 221.34 45.7899 208.84 46.2399C209.18 33.6999 219.24 23.5899 231.76 23.1899Z" fill="#D6DF2A"/>
<path d="M185.44 23.1899C185.82 35.6999 195.86 45.7899 208.36 46.2399C208.02 33.6999 197.96 23.5899 185.44 23.1899Z" fill="#FAA51A"/>
<path d="M231.76 0.0600586C231.38 12.5701 221.34 22.6601 208.84 23.1101C209.18 10.5801 219.24 0.470059 231.76 0.0600586Z" fill="#D6DF2A"/>
<path d="M185.44 0.0600586C185.82 12.5701 195.86 22.6601 208.36 23.1101C208.02 10.5801 197.96 0.470059 185.44 0.0600586Z" fill="#FAA51A"/>
<path d="M56.15 20.41H42.51C42.51 9.14001 51.64 0.0100098 62.91 0.0100098H76.55C76.55 11.28 67.42 20.41 56.15 20.41Z" fill="#2AB674"/>
<path d="M106.06 16.81H84.7401C82.6801 16.81 80.8601 15.88 79.6101 14.45C79.6801 17.8 82.4101 20.49 85.7701 20.49H105.03C108.39 20.49 111.12 17.8 111.19 14.45C109.94 15.88 108.12 16.81 106.06 16.81Z" fill="#FAA51A"/>
<path d="M105.78 14.7401H85.0301C82.0301 14.7401 79.6001 12.3101 79.6001 9.31007V5.50007C79.6001 2.50007 82.0301 0.0700684 85.0301 0.0700684H105.78C108.78 0.0700684 111.21 2.50007 111.21 5.50007V9.30007C111.21 12.3001 108.78 14.7401 105.78 14.7401Z" fill="#FAA51A"/>
<path d="M128.89 20.61H121.44C118.91 20.61 116.87 18.56 116.87 16.04V8.12C116.87 3.64 120.5 0 124.99 0H132.44C134.97 0 137.01 2.05 137.01 4.57V12.49C137 16.97 133.37 20.61 128.89 20.61Z" fill="#D6DF2A"/>
<path d="M127.92 46.5699C134.034 46.5699 138.99 41.6137 138.99 35.4999C138.99 29.3861 134.034 24.4299 127.92 24.4299C121.806 24.4299 116.85 29.3861 116.85 35.4999C116.85 41.6137 121.806 46.5699 127.92 46.5699Z" fill="#FAA51A"/>
<path d="M180.66 20.49C180.67 20.28 180.68 20.07 180.68 19.86C180.68 8.90001 172.2 0.0100098 161.73 0.0100098C151.26 0.0100098 142.78 8.90001 142.78 19.86C142.78 20.07 142.79 20.28 142.8 20.49H180.66Z" fill="#F68932"/>
<path d="M172.59 10.3501C172.52 12.7201 170.61 14.6301 168.25 14.7201C168.31 12.3401 170.22 10.4301 172.59 10.3501Z" fill="white"/>
<path d="M162.4 6.04004C164.03 7.77004 164.03 10.47 162.42 12.2C160.79 10.47 160.78 7.77004 162.4 6.04004Z" fill="white"/>
<path d="M152.15 10.1899C154.52 10.2599 156.43 12.1699 156.52 14.5299C154.15 14.4699 152.23 12.5599 152.15 10.1899Z" fill="white"/>
<path d="M321.7 38.4401C319.91 34.4101 316.97 31.0201 313.3 28.6501C311.8 30.1501 310.45 31.8301 309.27 33.7001C309 34.1301 308.79 34.4601 308.28 34.4601C307.79 34.4601 307.39 34.0601 307.39 33.5701C307.39 33.3401 307.48 33.1201 307.63 32.9601C307.66 32.9101 307.71 32.8401 307.77 32.7501C308.93 30.9001 310.26 29.2201 311.72 27.7201C310.31 26.9701 308.82 26.3601 307.25 25.9201C304.4 27.9701 301.97 30.5801 300.01 33.7101C299.74 34.1401 299.53 34.4701 299.02 34.4701C298.53 34.4701 298.13 34.0701 298.13 33.5801C298.13 33.3501 298.22 33.1301 298.37 32.9701C298.4 32.9201 298.45 32.8501 298.5 32.7601C300.3 29.8901 302.48 27.4401 304.99 25.4101C303.74 25.1901 302.45 25.0701 301.14 25.0701C300.59 25.0701 300.04 25.0901 299.5 25.1301C296.15 27.2901 293.33 30.1701 291.1 33.7101C290.83 34.1401 290.62 34.4701 290.11 34.4701C289.62 34.4701 289.22 34.0701 289.22 33.5801C289.22 33.3501 289.31 33.1301 289.46 32.9701C289.49 32.9201 289.54 32.8501 289.6 32.7601C291.3 30.0601 293.33 27.7201 295.66 25.7601C288.9 27.4601 283.35 32.2001 280.57 38.4501C278.94 42.1201 281.64 46.2501 285.66 46.2501H316.64C320.63 46.2401 323.33 42.1001 321.7 38.4401Z" fill="#FAA51A"/>
<path d="M344.25 1.91992L357.44 15.1099C364.72 22.3899 364.72 34.1999 357.44 41.4899C350.16 48.7699 338.35 48.7699 331.06 41.4899C323.78 34.2099 323.78 22.3999 331.06 15.1099L344.25 1.91992Z" fill="#BCBCDD"/>
<path d="M281.99 15.09V20.9H310.8C319.13 20.9 325.88 14.15 325.88 5.82001V0.0100098H297.07C288.74 0.0100098 281.99 6.76001 281.99 15.09Z" fill="#8DC543"/>
<path d="M457.09 35.6101C457.09 31.0601 459.34 27.0401 462.79 24.6001H423.96C417.9 24.6001 412.99 29.5101 412.99 35.5701C412.99 41.6301 417.9 46.5401 423.96 46.5401H462.66C459.28 44.0701 457.09 40.1001 457.09 35.6101Z" fill="#F4777C"/>
<path d="M398.52 21.49C404.452 21.49 409.26 16.6815 409.26 10.75C409.26 4.81847 404.452 0.0100098 398.52 0.0100098C392.588 0.0100098 387.78 4.81847 387.78 10.75C387.78 16.6815 392.588 21.49 398.52 21.49Z" fill="#FAA51A"/>
<path d="M380.71 46.53H384.65V26.99C384.65 21.34 380.07 16.76 374.42 16.76H370.48V36.3C370.48 41.95 375.06 46.53 380.71 46.53Z" fill="#2AB674"/>
<path d="M377.54 14.18H384.66V7.07001C384.66 3.17001 381.5 0.0100098 377.6 0.0100098H370.48V7.13001C370.48 11.02 373.64 14.18 377.54 14.18Z" fill="#D6DF2A"/>
<path d="M388.24 24.6201H399.2C405.25 24.6201 410.16 29.5201 410.16 35.5801C410.16 41.6301 405.26 46.5401 399.2 46.5401C393.15 46.5401 388.24 41.6401 388.24 35.5801V24.6201Z" fill="#8DC543"/>
<path d="M426.63 20.41H412.99C412.99 9.14001 422.12 0.0100098 433.39 0.0100098H447.03C447.02 11.28 437.89 20.41 426.63 20.41Z" fill="#2AB674"/>
</g>
<defs>
<clipPath id="clip0_212_32267">
<rect width="733.37" height="46.95" fill="white"/>
</clipPath>
</defs>
</svg>
