<svg width="107" height="106" viewBox="0 0 107 106" fill="none" xmlns="http://www.w3.org/2000/svg">
<rect width="106" height="106" transform="translate(0.5)" fill="white"/>
<path d="M66.6933 50.1761C75.4727 50.1761 82.5899 43.0589 82.5899 34.2794C82.5899 25.5 75.4727 18.3828 66.6933 18.3828C57.9138 18.3828 50.7966 25.5 50.7966 34.2794C50.7966 43.0589 57.9138 50.1761 66.6933 50.1761Z" fill="#FAA51A"/>
<path d="M40.3059 87.4845H46.1455V58.3948C46.1455 49.9598 39.3326 43.147 30.8977 43.147H25.0581V72.1286C25.0581 80.6717 31.8709 87.4845 40.3059 87.4845Z" fill="#2AB674"/>
<path d="M35.5477 39.4702H46.1455V28.8724C46.1455 23.0328 41.4954 18.3828 35.6559 18.3828H25.0581V28.9806C25.0581 34.712 29.7081 39.4702 35.5477 39.4702Z" fill="#D6DF2A"/>
<path d="M51.4443 54.9341H67.6654C76.641 54.9341 83.8864 62.1795 83.8864 71.1551C83.8864 80.1308 76.641 87.3762 67.6654 87.3762C58.6897 87.3762 51.4443 80.1308 51.4443 71.1551V54.9341Z" fill="#8DC543"/>
</svg>
