<svg width="20" height="20" viewBox="0 0 20 20" fill="none" xmlns="http://www.w3.org/2000/svg">
<path fill-rule="evenodd" clip-rule="evenodd" d="M8.23043 12.6719C5.02709 12.6719 2.29126 13.156 2.29126 15.096C2.29126 17.036 5.01043 17.5377 8.23043 17.5377C11.4346 17.5377 14.1696 17.0527 14.1696 15.1135C14.1696 13.1744 11.4513 12.6719 8.23043 12.6719Z" stroke="white" stroke-width="1.5" stroke-linecap="round" stroke-linejoin="round"/>
<path fill-rule="evenodd" clip-rule="evenodd" d="M8.23042 9.90435C10.3329 9.90435 12.0371 8.20018 12.0371 6.09768C12.0371 3.99518 10.3329 2.29102 8.23042 2.29102C6.12875 2.29102 4.42459 3.99518 4.42459 6.09768C4.41709 8.19268 6.10875 9.89685 8.20459 9.90435H8.23042Z" stroke="white" stroke-width="1.5" stroke-linecap="round" stroke-linejoin="round"/>
<path d="M16.0031 7.22461V10.5663" stroke="white" stroke-width="1.5" stroke-linecap="round" stroke-linejoin="round"/>
<path d="M17.7079 8.89518H14.2996" stroke="white" stroke-width="1.5" stroke-linecap="round" stroke-linejoin="round"/>
</svg>
