<svg width="70" height="70" viewBox="0 0 70 70" fill="none" xmlns="http://www.w3.org/2000/svg">
<path d="M38.0675 4.48518L39.1999 2.7657L38.0675 4.48518L39.722 5.57465C41.4673 6.72396 43.5372 7.2786 45.6233 7.15592L47.6008 7.03962C49.8257 6.90877 51.9149 8.11496 52.914 10.1072L53.802 11.8779C54.7388 13.7459 56.2541 15.2612 58.1221 16.198L59.8928 17.086C61.885 18.0851 63.0912 20.1743 62.9604 22.3992L62.8441 24.3767C62.7214 26.4628 63.276 28.5327 64.4254 30.278L65.5148 31.9325C66.7406 33.7938 66.7406 36.2062 65.5148 38.0675L64.4254 39.722C63.276 41.4673 62.7214 43.5372 62.8441 45.6233L62.9604 47.6008C63.0912 49.8257 61.885 51.9149 59.8928 52.914L58.1221 53.802C56.2541 54.7388 54.7388 56.2541 53.802 58.1221L52.914 59.8928C51.9149 61.885 49.8257 63.0912 47.6008 62.9604L45.6233 62.8441C43.5372 62.7214 41.4673 63.276 39.722 64.4254L38.0675 65.5148C36.2062 66.7406 33.7938 66.7406 31.9325 65.5148L30.278 64.4254C28.5327 63.276 26.4628 62.7214 24.3767 62.8441L22.3992 62.9604C20.1743 63.0912 18.0851 61.885 17.086 59.8928L16.198 58.1221C15.2612 56.2541 13.7459 54.7388 11.8779 53.802L10.1072 52.914C8.11496 51.9149 6.90877 49.8257 7.03962 47.6008L7.15592 45.6233C7.2786 43.5372 6.72397 41.4673 5.57465 39.722L4.48518 38.0676C3.25944 36.2062 3.25944 33.7938 4.48518 31.9325L5.57465 30.278C6.72396 28.5327 7.2786 26.4628 7.15592 24.3767L7.03962 22.3992C6.90877 20.1743 8.11496 18.0851 10.1072 17.086L11.8779 16.198C13.7459 15.2612 15.2612 13.7459 16.198 11.8779L17.086 10.1072C18.0851 8.11496 20.1743 6.90877 22.3992 7.03962L24.3767 7.15592C26.4628 7.2786 28.5327 6.72397 30.278 5.57465L31.9325 4.48518C33.7938 3.25944 36.2062 3.25944 38.0675 4.48518Z" stroke="white" stroke-width="4.11765"/>
<path d="M13.4007 42.3545C12.5565 42.3545 12.1344 41.9368 12.1344 41.1014V34.3085C12.1344 33.4732 12.5565 33.0555 13.4007 33.0555H16.6191C17.6215 33.0555 18.3953 33.2753 18.9405 33.715C19.4945 34.1459 19.7715 34.7262 19.7715 35.4561C19.7715 35.9397 19.6484 36.3618 19.4022 36.7223C19.1648 37.0829 18.8306 37.3511 18.3997 37.5269C18.9185 37.6852 19.3186 37.9534 19.6 38.3315C19.8814 38.7008 20.0221 39.1625 20.0221 39.7165C20.0221 40.5343 19.7275 41.1806 19.1384 41.6554C18.558 42.1215 17.7622 42.3545 16.751 42.3545H13.4007ZM14.4559 36.7487H16.1838C16.6235 36.7487 16.9444 36.6696 17.1467 36.5113C17.3577 36.353 17.4632 36.1112 17.4632 35.7858C17.4632 35.4605 17.3577 35.2231 17.1467 35.0736C16.9444 34.9153 16.6235 34.8361 16.1838 34.8361H14.4559V36.7487ZM14.4559 40.5738H16.4212C16.8697 40.5738 17.195 40.4903 17.3973 40.3232C17.6083 40.1474 17.7139 39.8879 17.7139 39.545C17.7139 39.2021 17.6083 38.9471 17.3973 38.78C17.195 38.6129 16.8697 38.5294 16.4212 38.5294H14.4559V40.5738ZM22.4774 42.4732C22.0905 42.4732 21.7915 42.3677 21.5805 42.1566C21.3695 41.9456 21.2639 41.6422 21.2639 41.2465V34.2822C21.2639 33.8865 21.3695 33.5831 21.5805 33.372C21.7915 33.161 22.0949 33.0555 22.4906 33.0555H25.7354C26.7906 33.0555 27.604 33.3149 28.1755 33.8337C28.7559 34.3437 29.0461 35.056 29.0461 35.9705C29.0461 36.6652 28.8702 37.2499 28.5185 37.7248C28.1755 38.1908 27.6743 38.5162 27.0148 38.7008C27.5072 38.8327 27.903 39.1713 28.2019 39.7165L28.8614 40.9036C29.0021 41.1674 29.0637 41.418 29.0461 41.6554C29.0373 41.8928 28.945 42.0907 28.7691 42.249C28.5932 42.3985 28.3338 42.4732 27.9909 42.4732C27.6479 42.4732 27.3666 42.4073 27.1467 42.2754C26.9357 42.1347 26.7466 41.9104 26.5795 41.6027L25.3792 39.3999C25.2737 39.2065 25.1374 39.0746 24.9704 39.0042C24.8121 38.9251 24.6274 38.8855 24.4164 38.8855H23.6909V41.2465C23.6909 41.6422 23.5854 41.9456 23.3744 42.1566C23.1721 42.3677 22.8731 42.4732 22.4774 42.4732ZM23.6909 37.1708H25.3001C26.2586 37.1708 26.7378 36.7927 26.7378 36.0364C26.7378 35.289 26.2586 34.9153 25.3001 34.9153H23.6909V37.1708ZM30.6999 42.4732C30.2866 42.4732 29.9832 42.3325 29.7898 42.0511C29.5963 41.7697 29.5963 41.418 29.7898 40.9959L33.0741 33.926C33.2324 33.5831 33.4258 33.3325 33.6545 33.1742C33.8831 33.0159 34.1513 32.9368 34.4591 32.9368C34.758 32.9368 35.0218 33.0159 35.2505 33.1742C35.4791 33.3325 35.6726 33.5831 35.8308 33.926L39.1152 40.9959C39.3174 41.4268 39.3262 41.7829 39.1416 42.0643C38.9569 42.3369 38.6667 42.4732 38.271 42.4732C37.9193 42.4732 37.6467 42.3941 37.4532 42.2358C37.2686 42.0775 37.1015 41.8225 36.952 41.4708L36.5299 40.4683H32.375L31.953 41.4708C31.7947 41.8225 31.632 42.0775 31.4649 42.2358C31.2979 42.3941 31.0428 42.4732 30.6999 42.4732ZM34.4327 35.588L33.1664 38.6085H35.7253L34.4591 35.588H34.4327ZM41.3271 42.4732C40.5709 42.4732 40.1927 42.0907 40.1927 41.3257V34.1371C40.1927 33.7502 40.2895 33.4556 40.4829 33.2533C40.6764 33.0423 40.9314 32.9368 41.2479 32.9368C41.5293 32.9368 41.7448 32.9895 41.8943 33.0951C42.0525 33.2006 42.2328 33.3764 42.4351 33.6227L46.247 38.3843V34.0711C46.247 33.3149 46.6207 32.9368 47.3681 32.9368C47.7375 32.9368 48.0145 33.0379 48.1991 33.2401C48.3926 33.4336 48.4893 33.7106 48.4893 34.0711V41.3784C48.4893 41.7126 48.4014 41.9808 48.2255 42.183C48.0496 42.3765 47.8122 42.4732 47.5132 42.4732C47.2143 42.4732 46.9768 42.4204 46.801 42.3149C46.6339 42.2094 46.4536 42.0335 46.2602 41.7873L42.4482 37.0257V41.3257C42.4482 42.0907 42.0745 42.4732 41.3271 42.4732ZM51.3227 42.3545C50.4785 42.3545 50.0564 41.9368 50.0564 41.1014V34.3085C50.0564 33.4732 50.4785 33.0555 51.3227 33.0555H53.908C55.5171 33.0555 56.7658 33.46 57.6539 34.269C58.5421 35.078 58.9861 36.2211 58.9861 37.6984C58.9861 39.1757 58.5421 40.3232 57.6539 41.141C56.7658 41.95 55.5171 42.3545 53.908 42.3545H51.3227ZM52.4834 40.3892H53.7497C54.673 40.3892 55.3545 40.1693 55.7941 39.7297C56.2426 39.2812 56.4668 38.6041 56.4668 37.6984C56.4668 36.7927 56.2426 36.12 55.7941 35.6803C55.3457 35.2406 54.6642 35.0208 53.7497 35.0208H52.4834V40.3892Z" fill="white"/>
<path d="M29.3547 22.5811H41.7741" stroke="white" stroke-width="2.25806" stroke-linecap="round"/>
<path d="M29.3547 49.6777H41.7741" stroke="white" stroke-width="2.25806" stroke-linecap="round"/>
</svg>
