<svg width="16" height="16" viewBox="0 0 16 16" fill="none" xmlns="http://www.w3.org/2000/svg">
<path fill-rule="evenodd" clip-rule="evenodd" d="M0.450101 0.450101C0.938256 -0.0380545 1.72971 -0.0380545 2.21787 0.450101L15.5512 13.7834C16.0394 14.2716 16.0394 15.063 15.5512 15.5512C15.063 16.0394 14.2716 16.0394 13.7834 15.5512L0.450101 2.21787C-0.0380545 1.72971 -0.0380545 0.938256 0.450101 0.450101Z" fill="#455A64"/>
<path fill-rule="evenodd" clip-rule="evenodd" d="M15.5512 0.450101C16.0394 0.938256 16.0394 1.72971 15.5512 2.21787L2.21787 15.5512C1.72971 16.0394 0.938256 16.0394 0.450101 15.5512C-0.0380545 15.063 -0.0380545 14.2716 0.450101 13.7834L13.7834 0.450101C14.2716 -0.0380545 15.063 -0.0380545 15.5512 0.450101Z" fill="#455A64"/>
</svg>
