<svg width="24" height="25" viewBox="0 0 24 25" fill="none" xmlns="http://www.w3.org/2000/svg">
<path d="M3.96436 15C3.96436 14.5858 3.62857 14.25 3.21436 14.25C2.80014 14.25 2.46436 14.5858 2.46436 15H3.96436ZM12.5001 5.75C12.0859 5.75 11.7501 6.08579 11.7501 6.5C11.7501 6.91421 12.0859 7.25 12.5001 7.25V5.75ZM4.3247 19.0357H5.63194V17.5357H4.3247V19.0357ZM14.2501 7.61035V17.1754H15.7501V7.61035H14.2501ZM13.8897 17.5357H8.35172V19.0357H13.8897V17.5357ZM2.46436 15V17.1754H3.96436V15H2.46436ZM13.8897 5.75H12.5001V7.25H13.8897V5.75ZM14.2501 17.1754C14.2501 17.3744 14.0887 17.5357 13.8897 17.5357V19.0357C14.9172 19.0357 15.7501 18.2028 15.7501 17.1754H14.2501ZM4.3247 17.5357C4.12569 17.5357 3.96436 17.3744 3.96436 17.1754H2.46436C2.46436 18.2028 3.29726 19.0357 4.3247 19.0357V17.5357ZM15.7501 7.61035C15.7501 6.58291 14.9172 5.75 13.8897 5.75V7.25C14.0887 7.25 14.2501 7.41133 14.2501 7.61035H15.7501Z" fill="#7AC046"/>
<path d="M20.7143 18.2854H22.5V15.3047C22.5 11.6253 19.5173 8.64258 15.8379 8.64258H15" stroke="#7AC046" stroke-width="1.5" stroke-linecap="round" stroke-linejoin="round"/>
<path d="M17.143 18.2852H13.9287" stroke="#7AC046" stroke-width="1.5"/>
<path d="M8.89279 18.8211C8.89279 19.8863 8.02934 20.7497 6.96422 20.7497C5.8991 20.7497 5.03564 19.8863 5.03564 18.8211C5.03564 17.756 5.8991 16.8926 6.96422 16.8926C8.02934 16.8926 8.89279 17.756 8.89279 18.8211Z" stroke="#7AC046" stroke-width="1.5"/>
<path d="M20.6784 18.8211C20.6784 19.8863 19.815 20.7497 18.7499 20.7497C17.6847 20.7497 16.8213 19.8863 16.8213 18.8211C16.8213 17.756 17.6847 16.8926 18.7499 16.8926C19.815 16.8926 20.6784 17.756 20.6784 18.8211Z" stroke="#7AC046" stroke-width="1.5"/>
<path fill-rule="evenodd" clip-rule="evenodd" d="M6 3.5C8.76108 3.5 11 5.73838 11 8.5C11 11.2611 8.76108 13.5 6 13.5C3.23838 13.5 1 11.2611 1 8.5C1 5.73838 3.23838 3.5 6 3.5Z" stroke="#7AC046" stroke-width="1.5" stroke-linecap="round" stroke-linejoin="round"/>
<path d="M3.99995 9L5.3936 10.3936L8.3095 7.5" stroke="#7AC046" stroke-width="1.5" stroke-linecap="round" stroke-linejoin="round"/>
</svg>
