<svg width="24" height="26" viewBox="0 0 24 26" fill="none" xmlns="http://www.w3.org/2000/svg">
<path d="M2.46436 7.5C2.46436 7.91421 2.80014 8.25 3.21436 8.25C3.62857 8.25 3.96436 7.91421 3.96436 7.5H2.46436ZM3.96436 15C3.96436 14.5858 3.62857 14.25 3.21436 14.25C2.80014 14.25 2.46436 14.5858 2.46436 15H3.96436ZM13.8897 4.75H4.3247V6.25H13.8897V4.75ZM4.3247 18.0357H5.63194V16.5357H4.3247V18.0357ZM14.2501 6.61035V16.1754H15.7501V6.61035H14.2501ZM13.8897 16.5357H8.35172V18.0357H13.8897V16.5357ZM2.46436 6.61035V7.5H3.96436V6.61035H2.46436ZM2.46436 15V16.1754H3.96436V15H2.46436ZM14.2501 16.1754C14.2501 16.3744 14.0887 16.5357 13.8897 16.5357V18.0357C14.9172 18.0357 15.7501 17.2028 15.7501 16.1754H14.2501ZM4.3247 16.5357C4.12569 16.5357 3.96436 16.3744 3.96436 16.1754H2.46436C2.46436 17.2028 3.29726 18.0357 4.3247 18.0357V16.5357ZM4.3247 4.75C3.29726 4.75 2.46436 5.5829 2.46436 6.61035H3.96436C3.96436 6.41133 4.12569 6.25 4.3247 6.25V4.75ZM13.8897 6.25C14.0887 6.25 14.2501 6.41133 14.2501 6.61035H15.7501C15.7501 5.58291 14.9172 4.75 13.8897 4.75V6.25Z" fill="#00ADD0"/>
<path d="M20.7143 17.2854H22.5V13.6384C22.5 10.327 19.8156 7.64258 16.5041 7.64258H15" stroke="#00ADD0" stroke-width="1.5" stroke-linecap="round" stroke-linejoin="round"/>
<path d="M17.143 17.2852H13.9287" stroke="#00ADD0" stroke-width="1.5"/>
<path d="M8.89279 17.8211C8.89279 18.8863 8.02934 19.7497 6.96422 19.7497C5.8991 19.7497 5.03564 18.8863 5.03564 17.8211C5.03564 16.756 5.8991 15.8926 6.96422 15.8926C8.02934 15.8926 8.89279 16.756 8.89279 17.8211Z" stroke="#00ADD0" stroke-width="1.5"/>
<path d="M20.6789 17.8211C20.6789 18.8863 19.8155 19.7497 18.7503 19.7497C17.6852 19.7497 16.8218 18.8863 16.8218 17.8211C16.8218 16.756 17.6852 15.8926 18.7503 15.8926C19.8155 15.8926 20.6789 16.756 20.6789 17.8211Z" stroke="#00ADD0" stroke-width="1.5"/>
<path d="M6 9.5L1 9.5" stroke="#00ADD0" stroke-width="1.66552" stroke-linecap="round" stroke-linejoin="round"/>
<path d="M6 12.5L2 12.5" stroke="#00ADD0" stroke-width="1.66552" stroke-linecap="round" stroke-linejoin="round"/>
<path d="M1 22.5H23" stroke="#00ADD0" stroke-width="1.5" stroke-linecap="round"/>
</svg>
