<svg width="24" height="24" viewBox="0 0 24 24" fill="none" xmlns="http://www.w3.org/2000/svg">
<path d="M2.46487 7C2.46487 7.41393 2.80043 7.74948 3.21436 7.74948C3.62828 7.74948 3.96384 7.41393 3.96384 7H2.46487ZM3.96384 14.5C3.96384 14.0861 3.62828 13.7505 3.21436 13.7505C2.80043 13.7505 2.46487 14.0861 2.46487 14.5H3.96384ZM14.0008 4.25052H4.21367V5.74948H14.0008V4.25052ZM4.21367 17.5352H5.63194V16.0362H4.21367V17.5352ZM14.2506 5.99931V15.7864H15.7496V5.99931H14.2506ZM14.0008 16.0362H8.35172V17.5352H14.0008V16.0362ZM2.46487 5.99931V7H3.96384V5.99931H2.46487ZM2.46487 14.5V15.7864H3.96384V14.5H2.46487ZM14.2506 15.7864C14.2506 15.9244 14.1387 16.0362 14.0008 16.0362V17.5352C14.9666 17.5352 15.7496 16.7522 15.7496 15.7864H14.2506ZM4.21367 16.0362C4.07569 16.0362 3.96384 15.9244 3.96384 15.7864H2.46487C2.46487 16.7522 3.24783 17.5352 4.21367 17.5352V16.0362ZM4.21367 4.25052C3.24783 4.25052 2.46487 5.03348 2.46487 5.99931H3.96384C3.96384 5.86134 4.07569 5.74948 4.21367 5.74948V4.25052ZM14.0008 5.74948C14.1387 5.74948 14.2506 5.86134 14.2506 5.99931H15.7496C15.7496 5.03348 14.9666 4.25052 14.0008 4.25052V5.74948Z" fill="#808080"/>
<path d="M20.7143 16.7857H22.5V13.1387C22.5 9.8273 19.8156 7.14285 16.5041 7.14285H15" stroke="#808080" stroke-width="1.49897" stroke-linecap="round" stroke-linejoin="round"/>
<path d="M17.143 16.7857H13.9287" stroke="#808080" stroke-width="1.49897"/>
<path d="M8.89355 17.3214C8.89355 18.3868 8.02987 19.2505 6.96446 19.2505C5.89905 19.2505 5.03537 18.3868 5.03537 17.3214C5.03537 16.256 5.89905 15.3923 6.96446 15.3923C8.02987 15.3923 8.89355 16.256 8.89355 17.3214Z" stroke="#808080" stroke-width="1.49897"/>
<circle cx="18.7501" cy="17.3214" r="1.92909" stroke="#808080" stroke-width="1.49897"/>
<path d="M9 9L1 9" stroke="#808080" stroke-width="1.49897" stroke-linecap="round" stroke-linejoin="round"/>
<path d="M9 12L2 12" stroke="#808080" stroke-width="1.49897" stroke-linecap="round" stroke-linejoin="round"/>
</svg>
