<svg width="78" height="78" viewBox="0 0 78 78" fill="none" xmlns="http://www.w3.org/2000/svg">
<path d="M8.04072 22.748C8.04072 24.0761 9.11729 25.1526 10.4453 25.1526C11.7733 25.1526 12.8499 24.0761 12.8499 22.748H8.04072ZM12.8499 47.123C12.8499 45.795 11.7733 44.7185 10.4453 44.7185C9.11729 44.7185 8.04072 45.795 8.04072 47.123H12.8499ZM45.5428 13.8435H13.6514V18.6526H45.5428V13.8435ZM13.6514 56.9562H18.3025V52.147H13.6514V56.9562ZM46.3443 19.4542V51.3455H51.1535V19.4542H46.3443ZM45.5428 52.147H27.1417V56.9562H45.5428V52.147ZM8.04072 19.4542V22.748H12.8499V19.4542H8.04072ZM8.04072 47.123V51.3455H12.8499V47.123H8.04072ZM46.3443 51.3455C46.3443 51.7882 45.9854 52.147 45.5428 52.147V56.9562C48.6415 56.9562 51.1535 54.4442 51.1535 51.3455H46.3443ZM13.6514 52.147C13.2088 52.147 12.8499 51.7882 12.8499 51.3455H8.04072C8.04072 54.4442 10.5527 56.9562 13.6514 56.9562V52.147ZM13.6514 13.8435C10.5527 13.8435 8.04072 16.3555 8.04072 19.4542H12.8499C12.8499 19.0115 13.2088 18.6526 13.6514 18.6526V13.8435ZM45.5428 18.6526C45.9854 18.6526 46.3443 19.0115 46.3443 19.4542H51.1535C51.1535 16.3555 48.6415 13.8435 45.5428 13.8435V18.6526Z" fill="#FFA400"/>
<path d="M67.3224 54.5522H73.126V29.2088C73.126 25.8973 70.4415 23.2129 67.1301 23.2129H48.751" stroke="#FFA400" stroke-width="4.80919" stroke-linecap="round" stroke-linejoin="round"/>
<path d="M55.713 54.5547H45.2666" stroke="#FFA400" stroke-width="4.80919"/>
<path d="M28.9358 56.2932C28.9358 59.7731 26.1149 62.594 22.635 62.594C19.1552 62.594 16.3343 59.7731 16.3343 56.2932C16.3343 52.8134 19.1552 49.9925 22.635 49.9925C26.1149 49.9925 28.9358 52.8134 28.9358 56.2932Z" stroke="#FFA400" stroke-width="4.80919"/>
<path d="M67.2415 56.2932C67.2415 59.7731 64.4205 62.594 60.9407 62.594C57.4609 62.594 54.6399 59.7731 54.6399 56.2932C54.6399 52.8134 57.4609 49.9925 60.9407 49.9925C64.4205 49.9925 67.2415 52.8134 67.2415 56.2932Z" stroke="#FFA400" stroke-width="4.80919"/>
<path d="M19.502 29.25L3.25195 29.25" stroke="#FFA400" stroke-width="4.80919" stroke-linecap="round" stroke-linejoin="round"/>
<path d="M19.498 39.002L6.49805 39.002" stroke="#FFA400" stroke-width="4.80919" stroke-linecap="round" stroke-linejoin="round"/>
</svg>
