<svg width="70" height="70" viewBox="0 0 70 70" fill="none" xmlns="http://www.w3.org/2000/svg">
<path fill-rule="evenodd" clip-rule="evenodd" d="M8.75 18.9583C8.75 11.3015 8.83199 8.75 18.9583 8.75C29.0847 8.75 29.1667 11.3015 29.1667 18.9583C29.1667 26.6152 29.199 29.1667 18.9583 29.1667C8.7177 29.1667 8.75 26.6152 8.75 18.9583Z" stroke="white" stroke-width="4.5" stroke-linecap="round" stroke-linejoin="round"/>
<path fill-rule="evenodd" clip-rule="evenodd" d="M40.8333 18.9583C40.8333 11.3015 40.9152 8.75 51.0416 8.75C61.1679 8.75 61.2499 11.3015 61.2499 18.9583C61.2499 26.6152 61.2822 29.1667 51.0416 29.1667C40.801 29.1667 40.8333 26.6152 40.8333 18.9583Z" stroke="white" stroke-width="4.5" stroke-linecap="round" stroke-linejoin="round"/>
<path fill-rule="evenodd" clip-rule="evenodd" d="M8.75 51.0413C8.75 43.3845 8.83199 40.833 18.9583 40.833C29.0847 40.833 29.1667 43.3845 29.1667 51.0413C29.1667 58.6982 29.199 61.2497 18.9583 61.2497C8.7177 61.2497 8.75 58.6982 8.75 51.0413Z" stroke="white" stroke-width="4.5" stroke-linecap="round" stroke-linejoin="round"/>
<path fill-rule="evenodd" clip-rule="evenodd" d="M40.8333 51.0413C40.8333 43.3845 40.9152 40.833 51.0416 40.833C61.1679 40.833 61.2499 43.3845 61.2499 51.0413C61.2499 58.6982 61.2822 61.2497 51.0416 61.2497C40.801 61.2497 40.8333 58.6982 40.8333 51.0413Z" stroke="white" stroke-width="4.5" stroke-linecap="round" stroke-linejoin="round"/>
</svg>
