<svg width="48" height="48" viewBox="0 0 48 48" fill="none" xmlns="http://www.w3.org/2000/svg">
<g filter="url(#filter0_d_2890_132645)">
<rect x="6" y="2" width="36" height="36" rx="18" fill="url(#paint0_linear_2890_132645)"/>
<path fill-rule="evenodd" clip-rule="evenodd" d="M30.8935 26.8918C27.9647 29.821 23.6278 30.4538 20.0788 28.8125C19.5548 28.6015 19.1253 28.431 18.7169 28.431C17.5795 28.4378 16.1637 29.5407 15.4279 28.8057C14.6921 28.0698 15.7958 26.6529 15.7958 25.5086C15.7958 25.1002 15.6321 24.6784 15.4212 24.1534C13.7791 20.6049 14.4128 16.2666 17.3416 13.3384C21.0804 9.59828 27.1547 9.59828 30.8935 13.3375C34.639 17.0834 34.6323 23.1526 30.8935 26.8918Z" stroke="white" stroke-width="1.53333" stroke-linecap="round" stroke-linejoin="round"/>
<path d="M28.7131 20.4991H28.72" stroke="white" stroke-width="2.68333" stroke-linecap="round" stroke-linejoin="round"/>
<path d="M24.1062 20.4991H24.1269" stroke="white" stroke-width="2.68333" stroke-linecap="round" stroke-linejoin="round"/>
<path d="M19.5132 20.4991H19.5201" stroke="white" stroke-width="2.68333" stroke-linecap="round" stroke-linejoin="round"/>
</g>
<defs>
<filter id="filter0_d_2890_132645" x="0" y="0" width="48" height="48" filterUnits="userSpaceOnUse" color-interpolation-filters="sRGB">
<feFlood flood-opacity="0" result="BackgroundImageFix"/>
<feColorMatrix in="SourceAlpha" type="matrix" values="0 0 0 0 0 0 0 0 0 0 0 0 0 0 0 0 0 0 127 0" result="hardAlpha"/>
<feOffset dy="4"/>
<feGaussianBlur stdDeviation="3"/>
<feComposite in2="hardAlpha" operator="out"/>
<feColorMatrix type="matrix" values="0 0 0 0 0 0 0 0 0 0 0 0 0 0 0 0 0 0 0.05 0"/>
<feBlend mode="normal" in2="BackgroundImageFix" result="effect1_dropShadow_2890_132645"/>
<feBlend mode="normal" in="SourceGraphic" in2="effect1_dropShadow_2890_132645" result="shape"/>
</filter>
<linearGradient id="paint0_linear_2890_132645" x1="14.5" y1="34" x2="40.5" y2="9.5" gradientUnits="userSpaceOnUse">
<stop stop-color="#7646FE"/>
<stop offset="1" stop-color="#BBA4FF"/>
</linearGradient>
</defs>
</svg>
