<svg width="40" height="40" viewBox="0 0 40 40" fill="none" xmlns="http://www.w3.org/2000/svg">
<path fill-rule="evenodd" clip-rule="evenodd" d="M12.4501 12.4501C12.9383 11.9619 13.7297 11.9619 14.2179 12.4501L27.5512 25.7834C28.0394 26.2716 28.0394 27.063 27.5512 27.5512C27.063 28.0394 26.2716 28.0394 25.7834 27.5512L12.4501 14.2179C11.9619 13.7297 11.9619 12.9383 12.4501 12.4501Z" fill="white"/>
<path fill-rule="evenodd" clip-rule="evenodd" d="M27.5512 12.4501C28.0394 12.9383 28.0394 13.7297 27.5512 14.2179L14.2179 27.5512C13.7297 28.0394 12.9383 28.0394 12.4501 27.5512C11.9619 27.063 11.9619 26.2716 12.4501 25.7834L25.7834 12.4501C26.2716 11.9619 27.063 11.9619 27.5512 12.4501Z" fill="white"/>
</svg>
