<svg width="21" height="21" viewBox="0 0 21 21" fill="none" xmlns="http://www.w3.org/2000/svg">
<path fill-rule="evenodd" clip-rule="evenodd" d="M16.524 1.67334C16.8705 1.67334 17.1515 1.95427 17.1515 2.30083V5.64741C17.1515 5.99397 16.8705 6.2749 16.524 6.2749C16.1774 6.2749 15.8965 5.99397 15.8965 5.64741V2.30083C15.8965 1.95427 16.1774 1.67334 16.524 1.67334Z" fill="#78909C"/>
<path fill-rule="evenodd" clip-rule="evenodd" d="M14.2231 3.97417C14.2231 3.62761 14.5041 3.34668 14.8506 3.34668H18.1972C18.5438 3.34668 18.8247 3.62761 18.8247 3.97417C18.8247 4.32072 18.5438 4.60165 18.1972 4.60165H14.8506C14.5041 4.60165 14.2231 4.32072 14.2231 3.97417Z" fill="#78909C"/>
<path fill-rule="evenodd" clip-rule="evenodd" d="M1.67334 5.64746C1.67334 4.37641 2.70307 3.34668 3.97412 3.34668H11.5039C11.8505 3.34668 12.1314 3.62761 12.1314 3.97417C12.1314 4.32072 11.8505 4.60165 11.5039 4.60165H3.97412C3.39618 4.60165 2.92831 5.06952 2.92831 5.64746V15.6872C2.92831 16.2652 3.39618 16.733 3.97412 16.733H14.8505C15.4285 16.733 15.8963 16.2652 15.8963 15.6872V8.99405C15.8963 8.6475 16.1773 8.36656 16.5238 8.36656C16.8704 8.36656 17.1513 8.6475 17.1513 8.99405V15.6872C17.1513 16.9583 16.1216 17.988 14.8505 17.988H3.97412C2.70307 17.988 1.67334 16.9583 1.67334 15.6872V5.64746Z" fill="#78909C"/>
<path fill-rule="evenodd" clip-rule="evenodd" d="M10.9774 8.97823C10.8946 8.82847 10.6773 8.83634 10.6051 8.98999L9.66211 10.9939C9.57368 11.1819 9.398 11.3139 9.19288 11.3465C8.98777 11.3791 8.77981 11.3081 8.63745 11.1569L7.73805 10.2014C7.6446 10.1021 7.48199 10.1174 7.40877 10.2333C7.40876 10.2333 7.40879 10.2333 7.40877 10.2333L6.15058 12.2293C6.06273 12.3686 6.16219 12.5498 6.32756 12.5498H12.5957C12.7549 12.5498 12.856 12.3787 12.7794 12.2392L10.9774 8.97823ZM9.46948 8.45583C9.97795 7.37476 11.4975 7.3258 12.0755 8.37072L13.8778 11.6322C14.4166 12.6087 13.7098 13.8048 12.5957 13.8048H6.32756C5.17441 13.8048 4.47411 12.5352 5.08892 11.5601C5.08895 11.5601 5.0889 11.5602 5.08892 11.5601L6.34724 9.56388C6.85802 8.75454 7.99569 8.6441 8.65185 9.34122C8.65186 9.34124 8.65184 9.34121 8.65185 9.34122L8.9192 9.62524L9.46948 8.45583C9.46946 8.45589 9.46951 8.45577 9.46948 8.45583Z" fill="#78909C"/>
</svg>
