<svg width="79" height="78" viewBox="0 0 79 78" fill="none" xmlns="http://www.w3.org/2000/svg">
<path d="M10.25 19.5005H16.75H68.75" stroke="#DA1414" stroke-width="6.41667" stroke-linecap="round" stroke-linejoin="round"/>
<path d="M62.248 19.4995V64.9995C62.248 66.7234 61.5632 68.3767 60.3442 69.5957C59.1253 70.8147 57.472 71.4995 55.748 71.4995H23.248C21.5241 71.4995 19.8708 70.8147 18.6519 69.5957C17.4329 68.3767 16.748 66.7234 16.748 64.9995V19.4995M26.498 19.4995V12.9995C26.498 11.2756 27.1829 9.6223 28.4019 8.40332C29.6208 7.18433 31.2741 6.49951 32.998 6.49951H45.998C47.722 6.49951 49.3753 7.18433 50.5942 8.40332C51.8132 9.6223 52.498 11.2756 52.498 12.9995V19.4995" stroke="#DA1414" stroke-width="6.41667" stroke-linecap="round" stroke-linejoin="round"/>
<path d="M32.9961 35.7505V55.2505" stroke="#DA1414" stroke-width="6.41667" stroke-linecap="round" stroke-linejoin="round"/>
<path d="M46 35.7505V55.2505" stroke="#DA1414" stroke-width="6.41667" stroke-linecap="round" stroke-linejoin="round"/>
</svg>
