<svg width="20" height="20" viewBox="0 0 20 20" fill="none" xmlns="http://www.w3.org/2000/svg">
<path d="M16.1032 7.89014C16.1032 7.89014 15.6507 13.5026 15.3882 15.8668C15.2632 16.996 14.5657 17.6576 13.4232 17.6785C11.249 17.7176 9.07234 17.7201 6.89901 17.6743C5.79984 17.6518 5.11401 16.9818 4.99151 15.8726C4.72734 13.4876 4.27734 7.89014 4.27734 7.89014" stroke="white" stroke-width="1.55694" stroke-linecap="round" stroke-linejoin="round"/>
<path d="M17.2567 5.19938H3.125" stroke="white" stroke-width="1.55694" stroke-linecap="round" stroke-linejoin="round"/>
<path d="M14.5335 5.19949C13.8793 5.19949 13.316 4.73699 13.1877 4.09616L12.9852 3.08283C12.8602 2.61533 12.4368 2.29199 11.9543 2.29199H8.42682C7.94432 2.29199 7.52099 2.61533 7.39599 3.08283L7.19349 4.09616C7.06516 4.73699 6.50182 5.19949 5.84766 5.19949" stroke="white" stroke-width="1.55694" stroke-linecap="round" stroke-linejoin="round"/>
</svg>
