<svg width="79" height="78" viewBox="0 0 79 78" fill="none" xmlns="http://www.w3.org/2000/svg">
<path d="M16.081 22.9324C16.081 18.8732 19.37 15.5842 23.4293 15.5809H26.7735C28.7138 15.5809 30.5728 14.8107 31.9508 13.4457L34.2875 11.1057C37.1508 8.22619 41.8048 8.21319 44.6843 11.0764L44.6875 11.0797L44.7168 11.1057L47.0568 13.4457C48.4348 14.8139 50.2938 15.5809 52.234 15.5809H55.575C59.6343 15.5809 62.9265 18.8699 62.9265 22.9324V26.2702C62.9265 28.2104 63.6935 30.0727 65.0618 31.4507L67.4018 33.7907C70.2813 36.6539 70.2975 41.3079 67.4343 44.1874L67.431 44.1907L67.4018 44.2199L65.0618 46.5599C63.6935 47.9347 62.9265 49.7937 62.9265 51.7339V55.0782C62.9265 59.1374 59.6375 62.4264 55.5783 62.4264H55.575H52.2275C50.2873 62.4264 48.425 63.1967 47.0503 64.5649L44.7103 66.9017C41.8503 69.7812 37.1995 69.7974 34.32 66.9407C34.3168 66.9374 34.3135 66.9342 34.3103 66.9309L34.281 66.9017L31.9443 64.5649C30.5695 63.1967 28.7073 62.4297 26.767 62.4264H23.4293C19.37 62.4264 16.081 59.1374 16.081 55.0782V51.7274C16.081 49.7872 15.3108 47.9282 13.9425 46.5534L11.6058 44.2134C8.72628 41.3534 8.71003 36.7027 11.57 33.8232C11.57 33.8199 11.5733 33.8167 11.5765 33.8134L11.6058 33.7842L13.9425 31.4442C15.3108 30.0662 16.081 28.2072 16.081 26.2637V22.9324" stroke="#FFA600" stroke-width="4.8125" stroke-linecap="round" stroke-linejoin="round"/>
<path d="M31.1543 47.3583L47.8593 30.6533" stroke="#FFA600" stroke-width="4.8125" stroke-linecap="round" stroke-linejoin="round"/>
<path d="M47.6104 47.126H47.6396" stroke="#FFA600" stroke-width="6.41667" stroke-linecap="round" stroke-linejoin="round"/>
<path d="M31.3604 30.876H31.3896" stroke="#FFA600" stroke-width="6.41667" stroke-linecap="round" stroke-linejoin="round"/>
</svg>
