<svg width="28" height="28" viewBox="0 0 28 28" fill="none" xmlns="http://www.w3.org/2000/svg">
<path d="M5.59471 8.23216C5.59471 6.77504 6.77534 5.59441 8.23246 5.59324H9.43292C10.1294 5.59324 10.7967 5.31675 11.2914 4.82677L12.1302 3.98679C13.158 2.95316 14.8286 2.94849 15.8622 3.97629L15.8634 3.97746L15.8739 3.98679L16.7139 4.82677C17.2085 5.31792 17.8758 5.59324 18.5723 5.59324H19.7716C21.2287 5.59324 22.4105 6.77387 22.4105 8.23216V9.43029C22.4105 10.1268 22.6858 10.7952 23.177 11.2899L24.017 12.1299C25.0506 13.1577 25.0564 14.8283 24.0286 15.8619L24.0274 15.8631L24.017 15.8736L23.177 16.7136C22.6858 17.207 22.4105 17.8743 22.4105 18.5708V19.7713C22.4105 21.2284 21.2299 22.409 19.7728 22.409H19.7716H18.57C17.8735 22.409 17.205 22.6855 16.7115 23.1767L15.8715 24.0155C14.8449 25.0491 13.1755 25.055 12.1418 24.0295C12.1407 24.0283 12.1395 24.0271 12.1383 24.026L12.1278 24.0155L11.289 23.1767C10.7955 22.6855 10.1271 22.4102 9.43059 22.409H8.23246C6.77534 22.409 5.59471 21.2284 5.59471 19.7713V18.5685C5.59471 17.872 5.31822 17.2047 4.82707 16.7112L3.98826 15.8712C2.95463 14.8446 2.94879 13.1752 3.97543 12.1415C3.97543 12.1404 3.97659 12.1392 3.97776 12.138L3.98826 12.1275L4.82707 11.2876C5.31822 10.7929 5.59471 10.1256 5.59471 9.42795V8.23216" stroke="#90A4AE" stroke-width="2" stroke-linecap="round" stroke-linejoin="round"/>
<path d="M11.0038 17.0004L17.0003 11.0039" stroke="#90A4AE" stroke-width="2" stroke-linecap="round" stroke-linejoin="round"/>
<path d="M16.9114 16.9163H16.9219" stroke="#90A4AE" stroke-width="3" stroke-linecap="round" stroke-linejoin="round"/>
<path d="M11.0783 11.0833H11.0888" stroke="#90A4AE" stroke-width="3" stroke-linecap="round" stroke-linejoin="round"/>
</svg>
