<svg width="18" height="19" viewBox="0 0 18 19" fill="none" xmlns="http://www.w3.org/2000/svg">
<path d="M8.61885 2.50391H5.81466C3.50847 2.50391 2.0625 4.15716 2.0625 6.49768V12.8115C2.0625 15.152 3.50172 16.8052 5.81466 16.8052H12.4325C14.7462 16.8052 16.1854 15.152 16.1854 12.8115V9.75254" stroke="#90A4AE" stroke-width="1.34405" stroke-linecap="round" stroke-linejoin="round"/>
<path fill-rule="evenodd" clip-rule="evenodd" d="M6.62096 8.67942L12.2256 3.0043C12.9238 2.29805 14.0555 2.29805 14.7538 3.0043L15.6665 3.92851C16.3647 4.63553 16.3647 5.78225 15.6665 6.4885L10.0349 12.191C9.72963 12.5 9.31564 12.674 8.88365 12.674H6.07422L6.14472 9.80336C6.15522 9.38112 6.32546 8.97863 6.62096 8.67942Z" stroke="#90A4AE" stroke-width="1.34405" stroke-linecap="round" stroke-linejoin="round"/>
<path d="M11.3711 3.88086L14.7955 7.34835" stroke="#90A4AE" stroke-width="1.34405" stroke-linecap="round" stroke-linejoin="round"/>
</svg>
