<svg width="32" height="32" viewBox="0 0 32 32" fill="none" xmlns="http://www.w3.org/2000/svg">
<path d="M15.324 3.71826H10.3386C6.23863 3.71826 3.66797 6.62093 3.66797 10.7303V21.8156C3.66797 25.9249 6.22663 28.8276 10.3386 28.8276H22.104C26.2173 28.8276 28.776 25.9249 28.776 21.8156V16.4449" stroke="#90A4AE" stroke-width="2" stroke-linecap="round" stroke-linejoin="round"/>
<path fill-rule="evenodd" clip-rule="evenodd" d="M11.7708 14.561L21.7348 4.59699C22.9762 3.35699 24.9882 3.35699 26.2295 4.59699L27.8522 6.21966C29.0935 7.46099 29.0935 9.47432 27.8522 10.7143L17.8402 20.7263C17.2975 21.269 16.5615 21.5743 15.7935 21.5743H10.7988L10.9242 16.5343C10.9428 15.793 11.2455 15.0863 11.7708 14.561Z" stroke="#90A4AE" stroke-width="2" stroke-linecap="round" stroke-linejoin="round"/>
<path d="M20.2207 6.13623L26.3087 12.2242" stroke="#90A4AE" stroke-width="2" stroke-linecap="round" stroke-linejoin="round"/>
</svg>
