<svg width="26" height="26" viewBox="0 0 26 26" fill="none" xmlns="http://www.w3.org/2000/svg">
<path fill-rule="evenodd" clip-rule="evenodd" d="M4.9456 3.25C4.0095 3.25 3.25 4.02227 3.25 4.97294V5.98698C3.25 6.69118 3.51779 7.36838 3.9968 7.87775L9.24636 13.4597L9.24867 13.4562C10.2621 14.4937 10.8323 15.8962 10.8323 17.3586V22.3114C10.8323 22.6424 11.1786 22.8537 11.466 22.6976L14.4555 21.0685C14.9068 20.8221 15.1885 20.3432 15.1885 19.8233V17.3457C15.1885 15.8915 15.7506 14.4949 16.7548 13.4597L22.0044 7.87775C22.4822 7.36838 22.75 6.69118 22.75 5.98698V4.97294C22.75 4.02227 21.9917 3.25 21.0556 3.25H4.9456Z" stroke="#90A4AE" stroke-width="1.8" stroke-linecap="round" stroke-linejoin="round"/>
</svg>
