<svg width="18" height="18" viewBox="0 0 18 18" fill="none" xmlns="http://www.w3.org/2000/svg">
<path fill-rule="evenodd" clip-rule="evenodd" d="M3.42327 2.25C2.7752 2.25 2.24939 2.78465 2.24939 3.4428V4.14483C2.24939 4.63235 2.43478 5.10119 2.76641 5.45383L6.40072 9.31824L6.40231 9.31581C7.10392 10.0341 7.49868 11.0051 7.49868 12.0175V15.4464C7.49868 15.6755 7.73841 15.8218 7.93738 15.7137L10.0071 14.5859C10.3195 14.4153 10.5145 14.0838 10.5145 13.7238V12.0085C10.5145 11.0018 10.9036 10.0349 11.5989 9.31824L15.2332 5.45383C15.564 5.10119 15.7494 4.63235 15.7494 4.14483V3.4428C15.7494 2.78465 15.2244 2.25 14.5763 2.25H3.42327Z" stroke="#90A4AE" stroke-width="1.25" stroke-linecap="round" stroke-linejoin="round"/>
</svg>
