<svg width="42" height="43" viewBox="0 0 42 43" fill="none" xmlns="http://www.w3.org/2000/svg">
<rect y="0.5" width="42" height="42" rx="12" fill="#F6F7F8"/>
<path d="M30.8795 20.875V30.0806C30.8795 31.5 29.7182 32.6613 28.2988 32.6613H14.2056C12.7863 32.6613 11.625 31.5 11.625 30.0806V24" stroke="#546E7A" stroke-width="1.875" stroke-miterlimit="10" stroke-linecap="round" stroke-linejoin="round"/>
<path d="M13.331 11.5C12.4923 11.5 11.7181 12.0161 11.46 12.7903L9.91161 17.2419C9.33096 18.8548 10.3632 20.3387 12.2342 20.3387C13.589 20.3387 14.9439 19.5645 15.589 18.4677C15.9116 19.5645 16.9439 20.3387 18.2987 20.3387C19.6535 20.3387 20.8148 19.5645 21.331 18.4677C21.8471 19.5645 23.0084 20.3387 24.3632 20.3387C25.7181 20.3387 26.7503 19.5645 27.0729 18.4677C27.7826 19.5645 29.0729 20.3387 30.4277 20.3387C32.2987 20.3387 33.2664 18.9194 32.6858 17.2419L31.331 12.7903C31.0729 12.0161 30.2987 11.5 29.5245 11.5H13.331Z" stroke="#546E7A" stroke-width="1.875" stroke-miterlimit="10" stroke-linecap="round" stroke-linejoin="round"/>
<path d="M24.1251 32.125L24.125 26.6452C24.125 25.1613 22.8992 24 21.4799 24H21.2218C19.738 24 18.5767 25.2258 18.5767 26.6452L18.5767 32.125" stroke="#546E7A" stroke-width="1.875" stroke-miterlimit="10" stroke-linecap="round" stroke-linejoin="round"/>
</svg>
