<svg width="24" height="24" viewBox="0 0 24 24" fill="none" xmlns="http://www.w3.org/2000/svg">
<path d="M19.875 12.0776V19.8776C19.875 20.5404 19.3377 21.0776 18.675 21.0776H5.325C4.66226 21.0776 4.125 20.5404 4.125 19.8776V12.0776" stroke="#90A4AE" stroke-width="1.5" stroke-linecap="round" stroke-linejoin="round"/>
<path d="M19.8 6.45264H4.2C3.53726 6.45264 3 6.98989 3 7.65264V10.8776C3 11.5404 3.53726 12.0776 4.2 12.0776H19.8C20.4627 12.0776 21 11.5404 21 10.8776V7.65264C21 6.98989 20.4627 6.45264 19.8 6.45264Z" stroke="#90A4AE" stroke-width="1.5" stroke-linecap="round" stroke-linejoin="round"/>
<path d="M12 21L12 6" stroke="#90A4AE" stroke-width="1.5" stroke-linecap="round" stroke-linejoin="round"/>
<path d="M12 6.50697H7.66071C7.02135 6.50697 6.40818 6.25298 5.95608 5.80089C5.50398 5.34879 5.25 4.73562 5.25 4.09626C5.25 3.4569 5.50398 2.84372 5.95608 2.39163C6.40818 1.93953 7.02135 1.68555 7.66071 1.68555C11.0357 1.68555 12 6.50697 12 6.50697Z" stroke="#90A4AE" stroke-width="1.5" stroke-linecap="round" stroke-linejoin="round"/>
<path d="M12 6.50648H16.3393C16.9786 6.50648 17.5918 6.25249 18.0439 5.8004C18.496 5.3483 18.75 4.73513 18.75 4.09577C18.75 3.45641 18.496 2.84324 18.0439 2.39114C17.5918 1.93904 16.9786 1.68506 16.3393 1.68506C12.9643 1.68506 12 6.50648 12 6.50648Z" stroke="#90A4AE" stroke-width="1.5" stroke-linecap="round" stroke-linejoin="round"/>
</svg>
