<svg width="78" height="78" viewBox="0 0 78 78" fill="none" xmlns="http://www.w3.org/2000/svg">
<path d="M17.7518 66.9376C16.4479 68.652 13.9854 68.9983 12.4097 67.5297C8.86608 64.2269 5.96015 60.2847 3.85138 55.8984C1.17787 50.3375 -0.138053 44.2216 0.0117381 38.0532C0.161529 31.8848 1.77276 25.84 4.71303 20.4154C7.65331 14.9908 11.8387 10.3413 16.9254 6.84879C22.012 3.35631 27.8548 1.12059 33.9735 0.325306C40.0923 -0.469976 46.3124 0.197885 52.1228 2.27401C57.9333 4.35014 63.1682 7.77528 67.3974 12.268C70.7334 15.8117 73.3685 19.9399 75.1778 24.4334C75.9823 26.4315 74.7746 28.6052 72.7062 29.2062C70.6378 29.8072 68.4961 28.6042 67.6419 26.6269C66.2094 23.3107 64.2076 20.2591 61.718 17.6144C58.3346 14.0202 54.1466 11.2801 49.4983 9.61921C44.85 7.95831 39.8739 7.42402 34.9789 8.06024C30.0839 8.69647 25.4097 10.485 21.3404 13.279C17.271 16.073 13.9227 19.7926 11.5705 24.1323C9.21825 28.472 7.92927 33.3079 7.80944 38.2426C7.68961 43.1773 8.74234 48.07 10.8811 52.5187C12.4549 55.7922 14.5837 58.7566 17.1639 61.2849C18.7024 62.7924 19.0557 65.2233 17.7518 66.9376Z" fill="#F2F2F2"/>
<path d="M12.9287 63.1992C11.5408 64.4873 9.35785 64.4149 8.19647 62.9193C3.55501 56.9423 0.751956 49.7406 0.131538 42.1985C-0.0237028 40.3113 1.5359 38.7822 3.42942 38.7932L4.37226 38.7987C6.26577 38.8097 7.77231 40.3582 7.96901 42.2416C8.54945 47.7993 10.6132 53.1015 13.9426 57.5893C15.0709 59.11 15.0076 61.2696 13.6197 62.5577L12.9287 63.1992Z" fill="#D6DF2A"/>
<path d="M39.0002 3.42857C39.0002 1.53502 40.5383 -0.0156467 42.4245 0.150605C47.9045 0.633615 53.2341 2.27199 58.0565 4.97266C63.8785 8.23317 68.7666 12.933 72.2532 18.6226C75.7398 24.3121 77.7082 30.8011 77.9702 37.4689C78.2322 44.1366 76.7789 50.76 73.7495 56.7056C70.7201 62.6512 66.2158 67.7201 60.6675 71.4273C55.1192 75.1346 48.7125 77.3562 42.0602 77.8798C35.4078 78.4033 28.7325 77.2113 22.6725 74.4176C17.6531 72.1036 13.195 68.7549 9.58315 64.6054C8.33995 63.1771 8.69045 61.0214 10.2224 59.9084L10.9851 59.3542C12.5171 58.2412 14.6481 58.5959 15.9224 59.9965C18.7279 63.0801 22.1312 65.5791 25.9381 67.3341C30.786 69.569 36.1263 70.5227 41.4482 70.1038C46.77 69.685 51.8954 67.9077 56.334 64.9418C60.7727 61.976 64.3761 57.921 66.7997 53.1645C69.2232 48.408 70.3858 43.1093 70.1762 37.7751C69.9666 32.4409 68.3919 27.2497 65.6026 22.698C62.8134 18.1464 58.9029 14.3865 54.2452 11.7781C50.5878 9.72984 46.5656 8.44539 42.422 7.98819C40.5398 7.78052 39.0002 6.26498 39.0002 4.37143V3.42857Z" fill="#2AB674"/>
<path d="M30.1048 38.12C29.0568 38.12 28.2448 37.752 27.6688 37.016C27.1008 36.28 26.8168 35.248 26.8168 33.92C26.8168 32.488 27.1368 31.38 27.7768 30.596C28.4248 29.812 29.3168 29.42 30.4528 29.42C30.9008 29.42 31.3448 29.504 31.7848 29.672C32.2248 29.832 32.6008 30.064 32.9128 30.368L32.4088 31.52C32.1128 31.248 31.7968 31.048 31.4608 30.92C31.1248 30.784 30.7808 30.716 30.4288 30.716C29.7328 30.716 29.2008 30.96 28.8328 31.448C28.4648 31.936 28.2808 32.664 28.2808 33.632V33.98C28.4488 33.54 28.7208 33.196 29.0968 32.948C29.4728 32.7 29.9048 32.576 30.3928 32.576C30.8808 32.576 31.3128 32.692 31.6888 32.924C32.0648 33.156 32.3608 33.476 32.5768 33.884C32.7928 34.292 32.9008 34.76 32.9008 35.288C32.9008 35.832 32.7808 36.32 32.5408 36.752C32.3088 37.176 31.9808 37.512 31.5568 37.76C31.1408 38 30.6568 38.12 30.1048 38.12ZM30.0208 36.896C30.4528 36.896 30.8008 36.756 31.0648 36.476C31.3368 36.188 31.4728 35.812 31.4728 35.348C31.4728 34.884 31.3368 34.508 31.0648 34.22C30.8008 33.932 30.4528 33.788 30.0208 33.788C29.5888 33.788 29.2368 33.932 28.9648 34.22C28.7008 34.508 28.5688 34.884 28.5688 35.348C28.5688 35.812 28.7008 36.188 28.9648 36.476C29.2368 36.756 29.5888 36.896 30.0208 36.896ZM37.0001 38.12C36.4481 38.12 35.9121 38.036 35.3921 37.868C34.8721 37.692 34.4481 37.456 34.1201 37.16L34.6241 35.984C35.3521 36.544 36.1361 36.824 36.9761 36.824C37.4801 36.824 37.8721 36.696 38.1521 36.44C38.4401 36.176 38.5841 35.824 38.5841 35.384C38.5841 34.936 38.4481 34.576 38.1761 34.304C37.9041 34.024 37.5321 33.884 37.0601 33.884C36.3881 33.884 35.8321 34.152 35.3921 34.688H34.3601V29.54H39.5561V30.812H35.8601V33.104C36.2841 32.784 36.8041 32.624 37.4201 32.624C37.9561 32.624 38.4201 32.74 38.8121 32.972C39.2121 33.196 39.5201 33.512 39.7361 33.92C39.9601 34.32 40.0721 34.788 40.0721 35.324C40.0721 35.876 39.9481 36.364 39.7001 36.788C39.4521 37.204 39.0961 37.532 38.6321 37.772C38.1761 38.004 37.6321 38.12 37.0001 38.12ZM44.1594 38.336L43.1754 37.76L48.1194 29.204L49.0914 29.78L44.1594 38.336ZM43.1274 34.592C42.4554 34.592 41.9314 34.36 41.5554 33.896C41.1794 33.432 40.9914 32.8 40.9914 32C40.9914 31.2 41.1794 30.572 41.5554 30.116C41.9314 29.652 42.4554 29.42 43.1274 29.42C43.7994 29.42 44.3234 29.652 44.6994 30.116C45.0754 30.572 45.2634 31.2 45.2634 32C45.2634 32.8 45.0754 33.432 44.6994 33.896C44.3234 34.36 43.7994 34.592 43.1274 34.592ZM43.1274 33.584C43.4154 33.584 43.6394 33.456 43.7994 33.2C43.9594 32.936 44.0394 32.536 44.0394 32C44.0394 31.464 43.9594 31.068 43.7994 30.812C43.6394 30.556 43.4154 30.428 43.1274 30.428C42.8394 30.428 42.6154 30.556 42.4554 30.812C42.2954 31.06 42.2154 31.456 42.2154 32C42.2154 32.544 42.2954 32.944 42.4554 33.2C42.6154 33.456 42.8394 33.584 43.1274 33.584ZM49.1514 38.12C48.4794 38.12 47.9554 37.888 47.5794 37.424C47.2034 36.96 47.0154 36.328 47.0154 35.528C47.0154 34.728 47.2034 34.1 47.5794 33.644C47.9554 33.18 48.4794 32.948 49.1514 32.948C49.8234 32.948 50.3474 33.18 50.7234 33.644C51.0994 34.1 51.2874 34.728 51.2874 35.528C51.2874 36.328 51.0994 36.96 50.7234 37.424C50.3474 37.888 49.8234 38.12 49.1514 38.12ZM49.1514 37.112C49.4394 37.112 49.6634 36.984 49.8234 36.728C49.9834 36.464 50.0634 36.064 50.0634 35.528C50.0634 34.992 49.9834 34.596 49.8234 34.34C49.6634 34.084 49.4394 33.956 49.1514 33.956C48.8634 33.956 48.6394 34.084 48.4794 34.34C48.3194 34.588 48.2394 34.984 48.2394 35.528C48.2394 36.072 48.3194 36.472 48.4794 36.728C48.6394 36.984 48.8634 37.112 49.1514 37.112Z" fill="#1A1A1A"/>
<path d="M29.6455 51V50.3H31.2555V44.94L29.9855 45.74L29.6355 45.13L31.4855 43.95H32.0755V50.3H33.5855V51H29.6455ZM35.2516 51V50.38L37.6616 47.78C38.0016 47.4067 38.2449 47.0667 38.3916 46.76C38.5449 46.4533 38.6216 46.14 38.6216 45.82C38.6216 45 38.1449 44.59 37.1916 44.59C36.4782 44.59 35.8482 44.8567 35.3016 45.39L34.9916 44.75C35.2516 44.4833 35.5816 44.27 35.9816 44.11C36.3882 43.9433 36.8149 43.86 37.2616 43.86C37.9682 43.86 38.5082 44.0267 38.8816 44.36C39.2616 44.6867 39.4516 45.1533 39.4516 45.76C39.4516 46.18 39.3482 46.5933 39.1416 47C38.9349 47.4 38.6182 47.8267 38.1916 48.28L36.3016 50.3H39.7416V51H35.2516ZM43.1577 51.25L42.5877 50.92L46.7377 43.7L47.2977 44.03L43.1577 51.25ZM42.5577 48.18C42.0243 48.18 41.6077 47.99 41.3077 47.61C41.0077 47.23 40.8577 46.7 40.8577 46.02C40.8577 45.34 41.0077 44.8133 41.3077 44.44C41.6077 44.06 42.0243 43.87 42.5577 43.87C43.0843 43.87 43.4977 44.06 43.7977 44.44C44.1043 44.8133 44.2577 45.34 44.2577 46.02C44.2577 46.7 44.1043 47.23 43.7977 47.61C43.4977 47.99 43.0843 48.18 42.5577 48.18ZM42.5577 47.59C42.8643 47.59 43.1077 47.46 43.2877 47.2C43.4677 46.9333 43.5577 46.54 43.5577 46.02C43.5577 45.5 43.4677 45.11 43.2877 44.85C43.1077 44.59 42.8643 44.46 42.5577 44.46C42.2443 44.46 41.9977 44.59 41.8177 44.85C41.6443 45.11 41.5577 45.5 41.5577 46.02C41.5577 46.54 41.6443 46.9333 41.8177 47.2C41.9977 47.46 42.2443 47.59 42.5577 47.59ZM47.3377 51.09C46.811 51.09 46.3943 50.9 46.0877 50.52C45.7877 50.14 45.6377 49.61 45.6377 48.93C45.6377 48.2567 45.7877 47.73 46.0877 47.35C46.3943 46.97 46.811 46.78 47.3377 46.78C47.871 46.78 48.2877 46.97 48.5877 47.35C48.8877 47.73 49.0377 48.2567 49.0377 48.93C49.0377 49.61 48.8877 50.14 48.5877 50.52C48.2877 50.9 47.871 51.09 47.3377 51.09ZM47.3377 50.5C47.651 50.5 47.8943 50.37 48.0677 50.11C48.2477 49.8433 48.3377 49.45 48.3377 48.93C48.3377 48.41 48.2477 48.02 48.0677 47.76C47.8943 47.5 47.651 47.37 47.3377 47.37C47.031 47.37 46.7877 47.5 46.6077 47.76C46.4343 48.02 46.3477 48.41 46.3477 48.93C46.3477 49.4567 46.4343 49.85 46.6077 50.11C46.7877 50.37 47.031 50.5 47.3377 50.5Z" fill="#808080"/>
</svg>
