<svg width="42" height="42" viewBox="0 0 42 42" fill="none" xmlns="http://www.w3.org/2000/svg">
<rect width="42" height="42" rx="12" fill="#F6F7F8"/>
<path d="M30.8795 20.375V29.5806C30.8795 31 29.7182 32.1613 28.2988 32.1613H14.2056C12.7863 32.1613 11.625 31 11.625 29.5806V23.5" stroke="#90A4AE" stroke-width="1.875" stroke-miterlimit="10" stroke-linecap="round" stroke-linejoin="round"/>
<path d="M13.331 11C12.4923 11 11.7181 11.5161 11.46 12.2903L9.91161 16.7419C9.33096 18.3548 10.3632 19.8387 12.2342 19.8387C13.589 19.8387 14.9439 19.0645 15.589 17.9677C15.9116 19.0645 16.9439 19.8387 18.2987 19.8387C19.6535 19.8387 20.8148 19.0645 21.331 17.9677C21.8471 19.0645 23.0084 19.8387 24.3632 19.8387C25.7181 19.8387 26.7503 19.0645 27.0729 17.9677C27.7826 19.0645 29.0729 19.8387 30.4277 19.8387C32.2987 19.8387 33.2664 18.4194 32.6858 16.7419L31.331 12.2903C31.0729 11.5161 30.2987 11 29.5245 11H13.331Z" stroke="#90A4AE" stroke-width="1.875" stroke-miterlimit="10" stroke-linecap="round" stroke-linejoin="round"/>
<path d="M24.1251 31.625L24.125 26.1452C24.125 24.6613 22.8992 23.5 21.4799 23.5H21.2218C19.738 23.5 18.5767 24.7258 18.5767 26.1452L18.5767 31.625" stroke="#90A4AE" stroke-width="1.875" stroke-miterlimit="10" stroke-linecap="round" stroke-linejoin="round"/>
</svg>
