<svg width="22" height="22" viewBox="0 0 22 22" fill="none" xmlns="http://www.w3.org/2000/svg">
<path d="M2.59766 2.59717H19.2504" stroke="#90A4AE" stroke-width="1.375" stroke-linecap="round" stroke-linejoin="round"/>
<path d="M16.7513 2.59717H5.09436C4.6345 2.59717 4.26172 2.96995 4.26172 3.42981V18.4173C4.26172 18.8772 4.6345 19.2499 5.09436 19.2499H16.7513C17.2112 19.2499 17.5839 18.8772 17.5839 18.4173V3.42981C17.5839 2.96995 17.2112 2.59717 16.7513 2.59717Z" stroke="#90A4AE" stroke-width="1.375" stroke-linejoin="round"/>
<path d="M9.25781 14.2559H12.5884V19.2517H9.25781V14.2559Z" stroke="#90A4AE" stroke-width="1.375" stroke-linecap="round" stroke-linejoin="round"/>
<path d="M7.17773 5.92578H8.01037" stroke="#90A4AE" stroke-width="1.375" stroke-linecap="round"/>
<path d="M7.17773 8.42383H8.01037" stroke="#90A4AE" stroke-width="1.375" stroke-linecap="round"/>
<path d="M10.5078 5.92578H11.3405" stroke="#90A4AE" stroke-width="1.375" stroke-linecap="round"/>
<path d="M10.5078 8.42383H11.3405" stroke="#90A4AE" stroke-width="1.375" stroke-linecap="round"/>
<path d="M13.8379 5.92578H14.6705" stroke="#90A4AE" stroke-width="1.375" stroke-linecap="round"/>
<path d="M13.8379 8.42383H14.6705" stroke="#90A4AE" stroke-width="1.375" stroke-linecap="round"/>
<path d="M2.59766 19.2515H19.2504" stroke="#90A4AE" stroke-width="1.375" stroke-linecap="round" stroke-linejoin="round"/>
<path d="M12.5889 14.2557H13.4215C13.6514 14.2557 13.842 14.0676 13.7979 13.8419C13.5681 12.6596 12.3687 11.7578 10.9236 11.7578C9.479 11.7578 8.27917 12.6591 8.04936 13.8419C8.00523 14.0676 8.19591 14.2557 8.42571 14.2557H9.25835" stroke="#90A4AE" stroke-width="1.375" stroke-linecap="round" stroke-linejoin="round"/>
</svg>
