<svg width="28" height="28" viewBox="0 0 28 28" fill="none" xmlns="http://www.w3.org/2000/svg">
<path d="M6.38335 26.3612H3.30994C2.77907 26.3612 2.33203 25.9141 2.33203 25.3833V17.2806C2.33203 16.7498 2.77907 16.3027 3.30994 16.3027H6.38335C6.91422 16.3027 7.36126 16.7498 7.36126 17.2806V25.3833C7.36126 25.9141 6.91422 26.3612 6.38335 26.3612Z" stroke="#90A4AE" stroke-width="1.75" stroke-miterlimit="10" stroke-linecap="round" stroke-linejoin="round"/>
<path d="M16.9141 14C19.8136 14 22.1641 11.6495 22.1641 8.75C22.1641 5.8505 19.8136 3.5 16.9141 3.5C14.0146 3.5 11.6641 5.8505 11.6641 8.75C11.6641 11.6495 14.0146 14 16.9141 14Z" stroke="#90A4AE" stroke-width="1.4" stroke-miterlimit="10" stroke-linejoin="round"/>
<path d="M7.58203 19.2497C7.58203 19.2497 9.91536 16.9163 11.5532 16.5829C13.1008 16.2735 17.8057 17.2475 18.5382 17.9799C19.5878 19.0292 19.2487 20.4163 18.6654 20.9997" stroke="#90A4AE" stroke-width="1.75" stroke-miterlimit="10" stroke-linecap="round" stroke-linejoin="round"/>
<path d="M14.9038 21.3321H18.2566C18.2566 21.3321 19.3742 21.3321 20.2124 20.4939C20.6315 20.0748 21.2183 19.3483 21.9447 18.7895C22.6991 18.2028 23.8447 17.6999 24.9343 18.594C25.9961 19.4601 25.7166 20.6056 25.2417 21.3321C24.8505 21.9188 23.2579 23.6511 22.1403 24.7129C21.33 25.5231 18.8993 25.8584 17.2508 26.1657C15.9935 26.4172 14.0377 26.3334 12.5568 25.9143C11.6348 25.6349 10.6848 25.2158 10.126 25.2158C9.00844 25.2158 7.33203 25.2158 7.33203 25.2158" stroke="#90A4AE" stroke-width="1.75" stroke-miterlimit="10" stroke-linecap="round" stroke-linejoin="round"/>
<path d="M16.918 12.4519C16.716 12.4519 16.5141 12.3846 16.4132 12.25C16.3122 12.1154 16.2449 11.9471 16.2449 11.7115V11.1731L15.6391 11.476C15.5045 11.5433 15.4035 11.5433 15.3026 11.5096C15.2016 11.476 15.1343 11.375 15.1007 11.3077C15.067 11.2067 15.067 11.1058 15.1007 11.0048C15.1343 10.9038 15.2016 10.8029 15.3362 10.7692L16.2449 10.3317V9.72596L15.6391 9.99519C15.5045 10.0625 15.4035 10.0625 15.3026 10.0288C15.2016 9.99519 15.1343 9.92788 15.1007 9.82692C15.067 9.72596 15.067 9.625 15.1007 9.52404C15.1343 9.42308 15.2016 9.35577 15.3362 9.28846L16.2449 8.88461V7.26923H14.8987C14.4949 7.26923 14.293 7.06731 14.293 6.69712C14.293 6.32692 14.4949 6.125 14.8651 6.125H18.9709C19.341 6.125 19.543 6.32692 19.543 6.69712C19.543 7.06731 19.341 7.26923 18.9709 7.26923H17.591V8.21154L18.1968 7.94231C18.3314 7.875 18.4324 7.875 18.5334 7.90865C18.6343 7.94231 18.7016 8.04327 18.7353 8.14423C18.7689 8.24519 18.7689 8.34615 18.7353 8.44711C18.7016 8.54808 18.6343 8.61538 18.4997 8.68269L17.591 9.08654V9.69231L18.1968 9.42308C18.3314 9.35577 18.4324 9.35577 18.5334 9.38942C18.6343 9.42308 18.7016 9.52404 18.7353 9.59135C18.7689 9.69231 18.7689 9.79327 18.7353 9.89423C18.7016 9.99519 18.6343 10.0962 18.4997 10.1298L17.591 10.5673V11.7452C17.591 11.9808 17.5237 12.149 17.4228 12.2837C17.3218 12.3846 17.1535 12.4519 16.918 12.4519Z" fill="#90A4AE"/>
</svg>
