<svg width="17" height="16" viewBox="0 0 17 16" fill="none" xmlns="http://www.w3.org/2000/svg">
<path d="M7.28613 8.53684C7.51671 8.84509 7.81087 9.10014 8.14869 9.28471C8.4865 9.46927 8.86006 9.57902 9.24401 9.60652C9.62797 9.63402 10.0134 9.57862 10.374 9.44408C10.7347 9.30954 11.0622 9.09901 11.3343 8.82676L12.945 7.21607C13.434 6.70977 13.7046 6.03166 13.6985 5.32779C13.6924 4.62393 13.4101 3.95062 12.9123 3.4529C12.4146 2.95517 11.7413 2.67284 11.0374 2.66673C10.3336 2.66061 9.65547 2.93119 9.14917 3.4202L8.22571 4.33829" stroke="#90A4AE" stroke-linecap="round" stroke-linejoin="round"/>
<path d="M9.43397 7.46314C9.20339 7.15489 8.90922 6.89983 8.57141 6.71527C8.2336 6.53071 7.86004 6.42095 7.47608 6.39346C7.09212 6.36596 6.70674 6.42136 6.34608 6.5559C5.98541 6.69043 5.6579 6.90097 5.38575 7.17321L3.77505 8.78391C3.28605 9.29021 3.01547 9.96832 3.02159 10.6722C3.0277 11.376 3.31003 12.0494 3.80775 12.5471C4.30548 13.0448 4.97879 13.3271 5.68265 13.3332C6.38652 13.3394 7.06463 13.0688 7.57093 12.5798L8.48902 11.6617" stroke="#90A4AE" stroke-linecap="round" stroke-linejoin="round"/>
<path d="M12.1934 10.6666V14.3333" stroke="#90A4AE" stroke-linecap="round"/>
<path d="M10.3601 12.5L14.0268 12.5" stroke="#90A4AE" stroke-linecap="round"/>
</svg>
