<svg width="32" height="32" viewBox="0 0 32 32" fill="none" xmlns="http://www.w3.org/2000/svg">
<path d="M16.7358 12.8376H21.8657" stroke="#ffa400" stroke-width="1.87646" stroke-miterlimit="10" stroke-linecap="round" stroke-linejoin="round"/>
<path d="M16.4702 19.8225H18.2391L19.6543 26.3676H26.3762L27.4376 21.5914H18.8989" stroke="#ffa400" stroke-width="1.87646" stroke-miterlimit="10" stroke-linecap="round" stroke-linejoin="round"/>
<path d="M8.24463 12.3076L9.83667 13.8996L12.3132 11.4231" stroke="#ffa400" stroke-width="1.87646" stroke-miterlimit="10" stroke-linecap="round" stroke-linejoin="round"/>
<path d="M8.24463 18.85L9.83667 20.4421L12.3132 17.9656" stroke="#ffa400" stroke-width="1.87646" stroke-miterlimit="10" stroke-linecap="round" stroke-linejoin="round"/>
<path d="M20.1855 30.354C20.5275 30.354 20.8047 30.0768 20.8047 29.7348C20.8047 29.3929 20.5275 29.1157 20.1855 29.1157C19.8436 29.1157 19.5664 29.3929 19.5664 29.7348C19.5664 30.0768 19.8436 30.354 20.1855 30.354Z" stroke="#ffa400" stroke-width="1.25098" stroke-miterlimit="10" stroke-linecap="round" stroke-linejoin="round"/>
<path d="M25.6689 30.354C26.0109 30.354 26.2881 30.0768 26.2881 29.7348C26.2881 29.3929 26.0109 29.1157 25.6689 29.1157C25.327 29.1157 25.0498 29.3929 25.0498 29.7348C25.0498 30.0768 25.327 30.354 25.6689 30.354Z" stroke="#ffa400" stroke-width="1.25098" stroke-miterlimit="10" stroke-linecap="round" stroke-linejoin="round"/>
<path d="M12.8791 27.8799H10.3849C6.47558 27.8799 3.2915 24.6958 3.2915 20.7865V10.3852C3.2915 6.47582 6.47558 3.29175 10.3849 3.29175H20.2556C24.1649 3.29175 27.349 6.47582 27.349 10.3852V16.0457" stroke="#ffa400" stroke-width="1.87646" stroke-miterlimit="10" stroke-linecap="round" stroke-linejoin="round"/>
</svg>
