<svg width="32" height="31" viewBox="0 0 32 31" fill="none" xmlns="http://www.w3.org/2000/svg">
<path fill-rule="evenodd" clip-rule="evenodd" d="M26.0954 2.81488C26.6252 2.81488 27.0547 3.24438 27.0547 3.77419V8.89051C27.0547 9.42032 26.6252 9.84982 26.0954 9.84982C25.5656 9.84982 25.1361 9.42032 25.1361 8.89051V3.77419C25.1361 3.24438 25.5656 2.81488 26.0954 2.81488Z" fill="#B0BEC5"/>
<path fill-rule="evenodd" clip-rule="evenodd" d="M22.5778 6.33236C22.5778 5.80254 23.0073 5.37305 23.5371 5.37305H28.6534C29.1832 5.37305 29.6127 5.80254 29.6127 6.33236C29.6127 6.86217 29.1832 7.29167 28.6534 7.29167H23.5371C23.0073 7.29167 22.5778 6.86217 22.5778 6.33236Z" fill="#B0BEC5"/>
<path fill-rule="evenodd" clip-rule="evenodd" d="M3.3916 8.89052C3.3916 6.94732 4.96588 5.37305 6.90907 5.37305H18.4208C18.9506 5.37305 19.3801 5.80254 19.3801 6.33236C19.3801 6.86217 18.9506 7.29167 18.4208 7.29167H6.90907C6.0255 7.29167 5.31022 8.00695 5.31022 8.89052V24.2395C5.31022 25.1231 6.0255 25.8383 6.90907 25.8383H23.5371C24.4207 25.8383 25.136 25.1231 25.136 24.2395V14.0068C25.136 13.477 25.5655 13.0475 26.0953 13.0475C26.6251 13.0475 27.0546 13.477 27.0546 14.0068V24.2395C27.0546 26.1827 25.4803 27.757 23.5371 27.757H6.90907C4.96588 27.757 3.3916 26.1827 3.3916 24.2395V8.89052Z" fill="#B0BEC5"/>
<path fill-rule="evenodd" clip-rule="evenodd" d="M17.616 13.9826C17.4894 13.7536 17.1573 13.7657 17.0468 14.0006L15.6052 17.0642C15.47 17.3515 15.2014 17.5533 14.8878 17.6032C14.5742 17.653 14.2563 17.5445 14.0386 17.3133L12.6636 15.8526C12.5207 15.7008 12.2722 15.7242 12.1602 15.9013C12.1602 15.9014 12.1602 15.9013 12.1602 15.9013L10.2367 18.9529C10.1024 19.1659 10.2544 19.4429 10.5072 19.4429H20.0901C20.3335 19.4429 20.4881 19.1813 20.3709 18.968L17.616 13.9826ZM15.3107 13.1839C16.088 11.5312 18.4111 11.4563 19.2949 13.0538L22.0502 18.0401C22.8739 19.5329 21.7933 21.3615 20.0901 21.3615H10.5072C8.74428 21.3615 7.67366 19.4206 8.61359 17.9298C8.61363 17.9298 8.61356 17.9299 8.61359 17.9298L10.5373 14.8779C11.3182 13.6406 13.0575 13.4718 14.0607 14.5375C14.0607 14.5375 14.0606 14.5375 14.0607 14.5375L14.4694 14.9717L15.3107 13.1839C15.3106 13.184 15.3107 13.1838 15.3107 13.1839Z" fill="#B0BEC5"/>
</svg>
