<svg width="24" height="24" viewBox="0 0 24 24" fill="none" xmlns="http://www.w3.org/2000/svg">
<rect x="2.75" y="2.75" width="18.5" height="18.5" rx="1.25" stroke="white" stroke-width="1.5"/>
<path fill-rule="evenodd" clip-rule="evenodd" d="M14.1758 11.8105C14.1758 12.9608 13.243 13.893 12.0927 13.893C10.9425 13.893 10.0103 12.9608 10.0103 11.8105C10.0103 10.6596 10.9425 9.72742 12.0927 9.72742C13.243 9.72742 14.1758 10.6596 14.1758 11.8105Z" stroke="white" stroke-width="1.51492" stroke-linecap="round" stroke-linejoin="round"/>
<path fill-rule="evenodd" clip-rule="evenodd" d="M12.0926 16.6211C14.6013 16.6211 16.8958 14.8173 18.1877 11.8105C16.8958 8.80379 14.6013 7 12.0926 7H12.0952C9.58649 7 7.2919 8.80379 6 11.8105C7.2919 14.8173 9.58649 16.6211 12.0952 16.6211H12.0926Z" stroke="white" stroke-width="1.8" stroke-linecap="round" stroke-linejoin="round"/>
</svg>
