<svg width="89" height="29" viewBox="0 0 89 29" fill="none" xmlns="http://www.w3.org/2000/svg">
<path d="M31.6195 23.5732H29.4663C28.7484 23.5732 28.1663 22.9912 28.1663 22.2732V7.81074C28.1663 7.09277 28.7484 6.51074 29.4663 6.51074H31.6195M31.6195 15.042C27.7325 15.042 27.083 15.042 23.833 15.042" stroke="#FFA600" stroke-width="1.625"/>
<rect x="2.979" y="4.47949" width="21.125" height="21.125" rx="4.60417" fill="#FFA600" stroke="#FFA600" stroke-width="1.625"/>
<mask id="path-3-inside-1_1873_15126" fill="white">
<rect x="31.6196" y="3.66699" width="5.6875" height="5.6875" rx="1.3"/>
</mask>
<rect x="31.6196" y="3.66699" width="5.6875" height="5.6875" rx="1.3" stroke="#FFA600" stroke-width="3.25" mask="url(#path-3-inside-1_1873_15126)"/>
<mask id="path-4-inside-2_1873_15126" fill="white">
<rect x="31.6196" y="12.1982" width="5.6875" height="5.6875" rx="1.3"/>
</mask>
<rect x="31.6196" y="12.1982" width="5.6875" height="5.6875" rx="1.3" fill="#FFA600" stroke="#FFA600" stroke-width="3.25" mask="url(#path-4-inside-2_1873_15126)"/>
<mask id="path-5-inside-3_1873_15126" fill="white">
<rect x="31.6196" y="20.7295" width="5.6875" height="5.6875" rx="1.3"/>
</mask>
<rect x="31.6196" y="20.7295" width="5.6875" height="5.6875" rx="1.3" stroke="#FFA600" stroke-width="3.25" mask="url(#path-5-inside-3_1873_15126)"/>
<path d="M13.5415 21.3238C13.1665 21.3238 12.7915 21.2051 12.604 20.9677C12.4165 20.7303 12.2915 20.4336 12.2915 20.0182V19.0687L11.1665 19.6028C10.9165 19.7215 10.729 19.7215 10.5415 19.6621C10.354 19.6028 10.229 19.4247 10.1665 19.3061C10.104 19.128 10.104 18.95 10.1665 18.772C10.229 18.5939 10.354 18.4159 10.604 18.3565L12.2915 17.5851V16.5169L11.1665 16.9916C10.9165 17.1103 10.729 17.1103 10.5415 17.051C10.354 16.9916 10.229 16.8729 10.1665 16.6949C10.104 16.5169 10.104 16.3388 10.1665 16.1608C10.229 15.9828 10.354 15.8641 10.604 15.7454L12.2915 15.0332V12.1847H9.7915C9.0415 12.1847 8.6665 11.8286 8.6665 11.1759C8.6665 10.5231 9.0415 10.167 9.729 10.167H17.354C18.0415 10.167 18.4165 10.5231 18.4165 11.1759C18.4165 11.8286 18.0415 12.1847 17.354 12.1847H14.7915V13.8464L15.9165 13.3716C16.1665 13.2529 16.354 13.2529 16.5415 13.3123C16.729 13.3716 16.854 13.5496 16.9165 13.7277C16.979 13.9057 16.979 14.0837 16.9165 14.2618C16.854 14.4398 16.729 14.5585 16.479 14.6772L14.7915 15.3893V16.4575L15.9165 15.9828C16.1665 15.8641 16.354 15.8641 16.5415 15.9234C16.729 15.9828 16.854 16.1608 16.9165 16.2795C16.979 16.4575 16.979 16.6356 16.9165 16.8136C16.854 16.9916 16.729 17.1697 16.479 17.229L14.7915 18.0005V20.0775C14.7915 20.493 14.6665 20.7897 14.479 21.0271C14.2915 21.2051 13.979 21.3238 13.5415 21.3238Z" fill="white"/>
<path d="M45.1935 10.58C44.7668 10.58 44.5535 10.36 44.5535 9.92V4.52H42.6035C42.2368 4.52 42.0535 4.34 42.0535 3.98C42.0535 3.62667 42.2368 3.45 42.6035 3.45H47.7835C48.1502 3.45 48.3335 3.62667 48.3335 3.98C48.3335 4.34 48.1502 4.52 47.7835 4.52H45.8335V9.92C45.8335 10.36 45.6202 10.58 45.1935 10.58ZM50.4132 10.6C49.9065 10.6 49.4665 10.4967 49.0932 10.29C48.7199 10.0833 48.4299 9.79 48.2232 9.41C48.0165 9.02333 47.9132 8.57 47.9132 8.05C47.9132 7.53 48.0165 7.08 48.2232 6.7C48.4299 6.32 48.7199 6.02667 49.0932 5.82C49.4665 5.61333 49.9065 5.51 50.4132 5.51C50.9199 5.51 51.3599 5.61333 51.7332 5.82C52.1065 6.02667 52.3965 6.32 52.6032 6.7C52.8099 7.08 52.9132 7.53 52.9132 8.05C52.9132 8.57 52.8099 9.02333 52.6032 9.41C52.3965 9.79 52.1065 10.0833 51.7332 10.29C51.3599 10.4967 50.9199 10.6 50.4132 10.6ZM50.4132 9.65C50.7865 9.65 51.0865 9.51667 51.3132 9.25C51.5399 8.97667 51.6532 8.57667 51.6532 8.05C51.6532 7.51667 51.5399 7.12 51.3132 6.86C51.0865 6.59333 50.7865 6.46 50.4132 6.46C50.0399 6.46 49.7399 6.59333 49.5132 6.86C49.2865 7.12 49.1732 7.51667 49.1732 8.05C49.1732 8.57667 49.2865 8.97667 49.5132 9.25C49.7399 9.51667 50.0399 9.65 50.4132 9.65ZM54.274 10.55C54.1273 10.55 54.004 10.51 53.904 10.43C53.8106 10.3433 53.7606 10.2333 53.754 10.1C53.754 9.96667 53.8106 9.82667 53.924 9.68L55.304 7.98L54.024 6.4C53.904 6.25333 53.8473 6.11333 53.854 5.98C53.8606 5.84667 53.9106 5.74 54.004 5.66C54.104 5.57333 54.2273 5.53 54.374 5.53C54.5273 5.53 54.654 5.55667 54.754 5.61C54.8606 5.66333 54.9573 5.74667 55.044 5.86L56.024 7.12L57.014 5.86C57.1073 5.74667 57.204 5.66333 57.304 5.61C57.404 5.55667 57.5273 5.53 57.674 5.53C57.8273 5.53 57.9506 5.57333 58.044 5.66C58.1373 5.74667 58.184 5.85667 58.184 5.99C58.1906 6.12333 58.134 6.26333 58.014 6.41L56.734 7.98L58.124 9.68C58.244 9.82 58.3006 9.95667 58.294 10.09C58.2873 10.2233 58.234 10.3333 58.134 10.42C58.0406 10.5067 57.9173 10.55 57.764 10.55C57.4973 10.55 57.2773 10.44 57.104 10.22L56.014 8.85L54.934 10.22C54.8473 10.3267 54.754 10.41 54.654 10.47C54.554 10.5233 54.4273 10.55 54.274 10.55ZM60.0497 10.58C59.663 10.58 59.4697 10.3567 59.4697 9.91V6.13C59.4697 5.73 59.6597 5.53 60.0397 5.53C60.413 5.53 60.5997 5.73 60.5997 6.13V8.87L62.8097 5.93C62.883 5.83667 62.973 5.74667 63.0797 5.66C63.1863 5.57333 63.333 5.53 63.5197 5.53C63.8997 5.53 64.0897 5.75 64.0897 6.19V9.98C64.0897 10.38 63.903 10.58 63.5297 10.58C63.1497 10.58 62.9597 10.38 62.9597 9.98V7.24L60.7497 10.18C60.683 10.2733 60.5963 10.3633 60.4897 10.45C60.3897 10.5367 60.243 10.58 60.0497 10.58ZM66.0848 12.38C65.6715 12.38 65.4648 12.17 65.4648 11.75V6.16C65.4648 5.74 65.6682 5.53 66.0748 5.53C66.4882 5.53 66.6948 5.74 66.6948 6.16V6.37C66.8348 6.11 67.0448 5.90333 67.3248 5.75C67.6048 5.59 67.9248 5.51 68.2848 5.51C68.7115 5.51 69.0848 5.61333 69.4048 5.82C69.7315 6.02667 69.9848 6.32 70.1648 6.7C70.3448 7.07333 70.4348 7.52333 70.4348 8.05C70.4348 8.57 70.3448 9.02333 70.1648 9.41C69.9848 9.79 69.7348 10.0833 69.4148 10.29C69.0948 10.4967 68.7182 10.6 68.2848 10.6C67.9382 10.6 67.6248 10.5267 67.3448 10.38C67.0715 10.2267 66.8615 10.0233 66.7148 9.77V11.75C66.7148 12.17 66.5048 12.38 66.0848 12.38ZM67.9348 9.65C68.3082 9.65 68.6082 9.51667 68.8348 9.25C69.0615 8.97667 69.1748 8.57667 69.1748 8.05C69.1748 7.51667 69.0615 7.12 68.8348 6.86C68.6082 6.59333 68.3082 6.46 67.9348 6.46C67.5615 6.46 67.2615 6.59333 67.0348 6.86C66.8082 7.12 66.6948 7.51667 66.6948 8.05C66.6948 8.57667 66.8082 8.97667 67.0348 9.25C67.2615 9.51667 67.5615 9.65 67.9348 9.65ZM72.1774 10.58C71.7574 10.58 71.5474 10.3633 71.5474 9.93V6.31C71.5474 5.84333 71.7807 5.61 72.2474 5.61H74.7974C75.1507 5.61 75.3274 5.77333 75.3274 6.1C75.3274 6.42667 75.1507 6.59 74.7974 6.59H72.7974V9.93C72.7974 10.3633 72.5907 10.58 72.1774 10.58ZM78.3077 10.6C77.801 10.6 77.361 10.4967 76.9877 10.29C76.6144 10.0833 76.3244 9.79 76.1177 9.41C75.911 9.02333 75.8077 8.57 75.8077 8.05C75.8077 7.53 75.911 7.08 76.1177 6.7C76.3244 6.32 76.6144 6.02667 76.9877 5.82C77.361 5.61333 77.801 5.51 78.3077 5.51C78.8144 5.51 79.2544 5.61333 79.6277 5.82C80.001 6.02667 80.291 6.32 80.4977 6.7C80.7044 7.08 80.8077 7.53 80.8077 8.05C80.8077 8.57 80.7044 9.02333 80.4977 9.41C80.291 9.79 80.001 10.0833 79.6277 10.29C79.2544 10.4967 78.8144 10.6 78.3077 10.6ZM78.3077 9.65C78.681 9.65 78.981 9.51667 79.2077 9.25C79.4344 8.97667 79.5477 8.57667 79.5477 8.05C79.5477 7.51667 79.4344 7.12 79.2077 6.86C78.981 6.59333 78.681 6.46 78.3077 6.46C77.9344 6.46 77.6344 6.59333 77.4077 6.86C77.181 7.12 77.0677 7.51667 77.0677 8.05C77.0677 8.57667 77.181 8.97667 77.4077 9.25C77.6344 9.51667 77.9344 9.65 78.3077 9.65ZM84.1562 10.6C83.6495 10.6 83.2095 10.4967 82.8362 10.29C82.4628 10.0833 82.1728 9.79 81.9662 9.41C81.7595 9.02333 81.6562 8.57 81.6562 8.05C81.6562 7.53 81.7595 7.08 81.9662 6.7C82.1728 6.32 82.4628 6.02667 82.8362 5.82C83.2095 5.61333 83.6495 5.51 84.1562 5.51C84.6628 5.51 85.1028 5.61333 85.4762 5.82C85.8495 6.02667 86.1395 6.32 86.3462 6.7C86.5528 7.08 86.6562 7.53 86.6562 8.05C86.6562 8.57 86.5528 9.02333 86.3462 9.41C86.1395 9.79 85.8495 10.0833 85.4762 10.29C85.1028 10.4967 84.6628 10.6 84.1562 10.6ZM84.1562 9.65C84.5295 9.65 84.8295 9.51667 85.0562 9.25C85.2828 8.97667 85.3962 8.57667 85.3962 8.05C85.3962 7.51667 85.2828 7.12 85.0562 6.86C84.8295 6.59333 84.5295 6.46 84.1562 6.46C83.7828 6.46 83.4828 6.59333 83.2562 6.86C83.0295 7.12 82.9162 7.51667 82.9162 8.05C82.9162 8.57667 83.0295 8.97667 83.2562 9.25C83.4828 9.51667 83.7828 9.65 84.1562 9.65ZM43.1435 24.55C42.9968 24.55 42.8735 24.51 42.7735 24.43C42.6802 24.3433 42.6302 24.2333 42.6235 24.1C42.6235 23.9667 42.6802 23.8267 42.7935 23.68L44.1735 21.98L42.8935 20.4C42.7735 20.2533 42.7168 20.1133 42.7235 19.98C42.7302 19.8467 42.7802 19.74 42.8735 19.66C42.9735 19.5733 43.0968 19.53 43.2435 19.53C43.3968 19.53 43.5235 19.5567 43.6235 19.61C43.7302 19.6633 43.8268 19.7467 43.9135 19.86L44.8935 21.12L45.8835 19.86C45.9768 19.7467 46.0735 19.6633 46.1735 19.61C46.2735 19.5567 46.3968 19.53 46.5435 19.53C46.6968 19.53 46.8202 19.5733 46.9135 19.66C47.0068 19.7467 47.0535 19.8567 47.0535 19.99C47.0602 20.1233 47.0035 20.2633 46.8835 20.41L45.6035 21.98L46.9935 23.68C47.1135 23.82 47.1702 23.9567 47.1635 24.09C47.1568 24.2233 47.1035 24.3333 47.0035 24.42C46.9102 24.5067 46.7868 24.55 46.6335 24.55C46.3668 24.55 46.1468 24.44 45.9735 24.22L44.8835 22.85L43.8035 24.22C43.7168 24.3267 43.6235 24.41 43.5235 24.47C43.4235 24.5233 43.2968 24.55 43.1435 24.55ZM48.9192 24.58C48.5325 24.58 48.3392 24.3567 48.3392 23.91V20.13C48.3392 19.73 48.5292 19.53 48.9092 19.53C49.2825 19.53 49.4692 19.73 49.4692 20.13V22.87L51.6792 19.93C51.7525 19.8367 51.8425 19.7467 51.9492 19.66C52.0559 19.5733 52.2025 19.53 52.3892 19.53C52.7692 19.53 52.9592 19.75 52.9592 20.19V23.98C52.9592 24.38 52.7725 24.58 52.3992 24.58C52.0192 24.58 51.8292 24.38 51.8292 23.98V21.24L49.6192 24.18C49.5525 24.2733 49.4659 24.3633 49.3592 24.45C49.2592 24.5367 49.1125 24.58 48.9192 24.58ZM54.9044 24.58C54.5177 24.58 54.3244 24.3567 54.3244 23.91V20.13C54.3244 19.73 54.5144 19.53 54.8944 19.53C55.2677 19.53 55.4544 19.73 55.4544 20.13V22.87L57.6644 19.93C57.7377 19.8367 57.8277 19.7467 57.9344 19.66C58.041 19.5733 58.1877 19.53 58.3744 19.53C58.7544 19.53 58.9444 19.75 58.9444 20.19V23.98C58.9444 24.38 58.7577 24.58 58.3844 24.58C58.0044 24.58 57.8144 24.38 57.8144 23.98V21.24L55.6044 24.18C55.5377 24.2733 55.451 24.3633 55.3444 24.45C55.2444 24.5367 55.0977 24.58 54.9044 24.58ZM56.6344 18.99C56.221 18.99 55.861 18.8967 55.5544 18.71C55.2477 18.5167 55.031 18.2467 54.9044 17.9C54.811 17.6467 54.8744 17.4833 55.0944 17.41C55.2877 17.3433 55.4444 17.4267 55.5644 17.66C55.7844 18.0867 56.141 18.3 56.6344 18.3C57.1277 18.3 57.4844 18.0867 57.7044 17.66C57.8244 17.4267 57.981 17.3433 58.1744 17.41C58.2744 17.4433 58.341 17.5033 58.3744 17.59C58.4144 17.67 58.4044 17.7733 58.3444 17.9C58.1777 18.2467 57.9544 18.5167 57.6744 18.71C57.3944 18.8967 57.0477 18.99 56.6344 18.99ZM60.9395 24.58C60.5195 24.58 60.3095 24.3633 60.3095 23.93V20.31C60.3095 19.8433 60.5428 19.61 61.0095 19.61H63.5595C63.9128 19.61 64.0895 19.7733 64.0895 20.1C64.0895 20.4267 63.9128 20.59 63.5595 20.59H61.5595V23.93C61.5595 24.3633 61.3528 24.58 60.9395 24.58ZM64.9198 25.88C64.5598 25.88 64.3798 25.6933 64.3798 25.32V24.1C64.3798 23.7133 64.5732 23.52 64.9598 23.52C65.1465 23.2067 65.2798 22.8567 65.3598 22.47C65.4398 22.0833 65.4798 21.5933 65.4798 21V20.31C65.4798 19.8433 65.7132 19.61 66.1798 19.61H68.5898C69.0565 19.61 69.2898 19.8433 69.2898 20.31V23.52H69.5098C69.8965 23.52 70.0898 23.7133 70.0898 24.1V25.32C70.0898 25.6933 69.9132 25.88 69.5598 25.88C69.2065 25.88 69.0298 25.6933 69.0298 25.32V24.5H65.4398V25.32C65.4398 25.6933 65.2665 25.88 64.9198 25.88ZM66.0698 23.52H68.1198V20.57H66.5498V21.29C66.5498 21.71 66.5065 22.1167 66.4198 22.51C66.3398 22.9033 66.2232 23.24 66.0698 23.52ZM73.2315 24.6C72.7181 24.6 72.2715 24.4967 71.8915 24.29C71.5115 24.0767 71.2181 23.7767 71.0115 23.39C70.8048 23.0033 70.7015 22.55 70.7015 22.03C70.7015 21.51 70.8048 21.0633 71.0115 20.69C71.2181 20.31 71.5115 20.02 71.8915 19.82C72.2715 19.6133 72.7181 19.51 73.2315 19.51C73.4515 19.51 73.6881 19.54 73.9415 19.6C74.2015 19.66 74.4448 19.76 74.6715 19.9C74.8048 19.98 74.8815 20.0833 74.9015 20.21C74.9281 20.3367 74.9115 20.4533 74.8515 20.56C74.7981 20.6667 74.7148 20.7433 74.6015 20.79C74.4948 20.8367 74.3715 20.82 74.2315 20.74C73.9248 20.5667 73.6281 20.48 73.3415 20.48C72.9081 20.48 72.5715 20.6167 72.3315 20.89C72.0981 21.1567 71.9815 21.54 71.9815 22.04C71.9815 22.5333 72.0981 22.9233 72.3315 23.21C72.5715 23.49 72.9081 23.63 73.3415 23.63C73.6281 23.63 73.9248 23.5467 74.2315 23.38C74.3715 23.3 74.4948 23.2833 74.6015 23.33C74.7081 23.3767 74.7848 23.4567 74.8315 23.57C74.8781 23.6767 74.8881 23.7933 74.8615 23.92C74.8348 24.04 74.7581 24.14 74.6315 24.22C74.4115 24.3533 74.1781 24.45 73.9315 24.51C73.6848 24.57 73.4515 24.6 73.2315 24.6ZM77.1447 24.6C76.8514 24.6 76.5547 24.5633 76.2547 24.49C75.9614 24.41 75.7147 24.31 75.5147 24.19C75.3814 24.11 75.3014 24.0133 75.2747 23.9C75.2547 23.78 75.2747 23.67 75.3347 23.57C75.3947 23.47 75.4747 23.4 75.5747 23.36C75.6814 23.3133 75.7914 23.3233 75.9047 23.39C76.0781 23.4967 76.2647 23.5767 76.4647 23.63C76.6647 23.6833 76.8581 23.71 77.0447 23.71C77.4514 23.71 77.7847 23.6067 78.0447 23.4C78.3047 23.1867 78.4714 22.88 78.5447 22.48H76.7047C76.3514 22.48 76.1747 22.33 76.1747 22.03C76.1747 21.73 76.3514 21.58 76.7047 21.58H78.5347C78.4681 21.2 78.3047 20.91 78.0447 20.71C77.7914 20.5033 77.4581 20.4 77.0447 20.4C76.8581 20.4 76.6647 20.4267 76.4647 20.48C76.2647 20.5333 76.0747 20.6133 75.8947 20.72C75.7814 20.7867 75.6747 20.8 75.5747 20.76C75.4747 20.72 75.3981 20.6533 75.3447 20.56C75.2914 20.46 75.2747 20.3533 75.2947 20.24C75.3214 20.12 75.4014 20.0167 75.5347 19.93C75.7281 19.81 75.9681 19.71 76.2547 19.63C76.5481 19.55 76.8414 19.51 77.1347 19.51C77.9347 19.51 78.5681 19.7367 79.0347 20.19C79.5014 20.6367 79.7347 21.25 79.7347 22.03C79.7347 22.5567 79.6281 23.0133 79.4147 23.4C79.2081 23.78 78.9114 24.0767 78.5247 24.29C78.1381 24.4967 77.6781 24.6 77.1447 24.6ZM81.4719 24.58C81.0519 24.58 80.8419 24.3667 80.8419 23.94V20.16C80.8419 19.74 81.0519 19.53 81.4719 19.53C81.8853 19.53 82.0919 19.74 82.0919 20.16V21.5H84.2519V20.16C84.2519 19.74 84.4586 19.53 84.8719 19.53C85.2919 19.53 85.5019 19.74 85.5019 20.16V23.94C85.5019 24.3667 85.2919 24.58 84.8719 24.58C84.4586 24.58 84.2519 24.3667 84.2519 23.94V22.48H82.0919V23.94C82.0919 24.3667 81.8853 24.58 81.4719 24.58Z" fill="#90A4AE"/>
</svg>
