<svg width="29" height="20" viewBox="0 0 29 20" fill="none" xmlns="http://www.w3.org/2000/svg">
<path d="M22.4984 15.706H20.9663C20.4555 15.706 20.0413 15.2919 20.0413 14.781V4.49043C20.0413 3.97957 20.4555 3.56543 20.9663 3.56543H22.4984M22.4984 9.63573C19.7327 9.63573 19.2705 9.63573 16.958 9.63573" stroke="#90A4AE" stroke-width="1.15625"/>
<rect x="2.11963" y="2.12012" width="15.0312" height="15.0312" rx="3.27603" fill="#90A4AE" stroke="#90A4AE" stroke-width="1.15625"/>
<mask id="path-3-inside-1_1873_19851" fill="white">
<rect x="22.4985" y="1.54199" width="4.04686" height="4.04686" rx="0.924997"/>
</mask>
<rect x="22.4985" y="1.54199" width="4.04686" height="4.04686" rx="0.924997" stroke="#90A4AE" stroke-width="2.31249" mask="url(#path-3-inside-1_1873_19851)"/>
<mask id="path-4-inside-2_1873_19851" fill="white">
<rect x="22.4985" y="7.6123" width="4.04686" height="4.04686" rx="0.924997"/>
</mask>
<rect x="22.4985" y="7.6123" width="4.04686" height="4.04686" rx="0.924997" fill="#90A4AE" stroke="#90A4AE" stroke-width="2.31249" mask="url(#path-4-inside-2_1873_19851)"/>
<mask id="path-5-inside-3_1873_19851" fill="white">
<rect x="22.4985" y="13.6826" width="4.04686" height="4.04686" rx="0.924997"/>
</mask>
<rect x="22.4985" y="13.6826" width="4.04686" height="4.04686" rx="0.924997" stroke="#90A4AE" stroke-width="2.31249" mask="url(#path-5-inside-3_1873_19851)"/>
<path d="M9.57192 15.2482C9.30685 15.2482 9.04178 15.1569 8.90924 14.9743C8.7767 14.7917 8.68835 14.5634 8.68835 14.2439V13.5135L7.89313 13.9243C7.71641 14.0156 7.58388 14.0156 7.45134 13.97C7.3188 13.9243 7.23045 13.7874 7.18627 13.6961C7.14209 13.5591 7.14209 13.4222 7.18627 13.2852C7.23045 13.1483 7.3188 13.0113 7.49552 12.9657L8.68835 12.3722V11.5505L7.89313 11.9157C7.71641 12.007 7.58388 12.007 7.45134 11.9614C7.3188 11.9157 7.23045 11.8244 7.18627 11.6875C7.14209 11.5505 7.14209 11.4136 7.18627 11.2766C7.23045 11.1397 7.3188 11.0484 7.49552 10.9571L8.68835 10.4093V8.2181H6.92119C6.39105 8.2181 6.12598 7.94421 6.12598 7.44206C6.12598 6.93991 6.39105 6.66602 6.87702 6.66602H12.2668C12.7528 6.66602 13.0179 6.93991 13.0179 7.44206C13.0179 7.94421 12.7528 8.2181 12.2668 8.2181H10.4555V9.4963L11.2507 9.1311C11.4274 9.0398 11.56 9.0398 11.6925 9.08545C11.825 9.1311 11.9134 9.26805 11.9576 9.405C12.0018 9.54195 12.0018 9.67889 11.9576 9.81584C11.9134 9.95279 11.825 10.0441 11.6483 10.1354L10.4555 10.6832V11.5049L11.2507 11.1397C11.4274 11.0484 11.56 11.0484 11.6925 11.094C11.825 11.1397 11.9134 11.2766 11.9576 11.3679C12.0018 11.5049 12.0018 11.6418 11.9576 11.7788C11.9134 11.9157 11.825 12.0527 11.6483 12.0983L10.4555 12.6918V14.2895C10.4555 14.6091 10.3671 14.8373 10.2346 15.0199C10.1021 15.1569 9.88117 15.2482 9.57192 15.2482Z" fill="white"/>
</svg>
