<svg width="24" height="24" viewBox="0 0 24 24" fill="none" xmlns="http://www.w3.org/2000/svg">
<path d="M2.91113 5.82227V10.6742H7.76307" stroke="#78909C" stroke-width="1.3875" stroke-linecap="round" stroke-linejoin="round"/>
<path d="M20.3781 17.4672V12.6152H15.5261" stroke="#78909C" stroke-width="1.3875" stroke-linecap="round" stroke-linejoin="round"/>
<path d="M18.3853 9.37944C17.9826 8.29745 17.2983 7.33007 16.3961 6.56759C15.4939 5.80511 14.4032 5.27237 13.226 5.01908C12.0487 4.76579 10.8231 4.80021 9.66356 5.11912C8.50404 5.43803 7.44838 6.03105 6.59508 6.84283L2.91113 10.1344M20.3781 12.6147L16.6942 16.4457C15.8409 17.2575 14.7852 17.8505 13.6257 18.1694C12.4662 18.4883 11.2406 18.5228 10.0633 18.2695C8.886 18.0162 7.79538 17.4834 6.89318 16.721C5.99098 15.9585 5.30662 14.9911 4.90396 13.9091" stroke="#78909C" stroke-width="1.6" stroke-linecap="round" stroke-linejoin="round"/>
</svg>
