<svg width="29" height="28" viewBox="0 0 29 28" fill="none" xmlns="http://www.w3.org/2000/svg">
<path fill-rule="evenodd" clip-rule="evenodd" d="M5.99977 10.3125C5.44048 10.3125 2.5 7.95654 2.5 5.49277C2.5 3.56397 4.06665 2 5.99977 2C7.9329 2 9.5 3.56397 9.5 5.49277C9.5 7.95654 6.55906 10.3125 5.99977 10.3125Z" stroke="#90A4AE" stroke-width="1.8" stroke-linecap="round" stroke-linejoin="round"/>
<path fill-rule="evenodd" clip-rule="evenodd" d="M20.8943 25.8124C20.0323 25.8124 15.5 22.181 15.5 18.3835C15.5 15.4106 17.9147 13 20.8943 13C23.8739 13 26.2893 15.4106 26.2893 18.3835C26.2893 22.181 21.7564 25.8124 20.8943 25.8124Z" stroke="#90A4AE" stroke-width="2" stroke-linecap="round" stroke-linejoin="round"/>
<circle cx="6" cy="5.5" r="1.5" fill="#90A4AE"/>
<circle cx="21" cy="18.5" r="1.6" stroke="#90A4AE" stroke-width="1.8"/>
<path d="M5.95196 12.5C8.96349 12.5 12.4769 13.4459 12.4769 16.1221C12.4769 18.7984 3.5 17.0146 3.5 21.9216C3.5 26.8286 14.4886 25.9998 17.5 25.9998" stroke="#90A4AE" stroke-width="1.8" stroke-linecap="round" stroke-dasharray="2 2"/>
</svg>
