<svg width="19" height="20" viewBox="0 0 19 20" fill="none" xmlns="http://www.w3.org/2000/svg">
<path fill-rule="evenodd" clip-rule="evenodd" d="M16.2715 6.67643L15.8047 5.85619C15.4098 5.16215 14.5346 4.92272 13.8482 5.32095V5.32095C13.5215 5.51584 13.1316 5.57113 12.7646 5.47463C12.3976 5.37814 12.0835 5.13778 11.8917 4.80656C11.7683 4.59604 11.702 4.35625 11.6995 4.11145V4.11145C11.7107 3.71897 11.5644 3.33864 11.2941 3.0571C11.0239 2.77556 10.6525 2.61678 10.2648 2.61694H9.32429C8.9444 2.61694 8.58017 2.77022 8.31219 3.04288C8.04421 3.31553 7.89458 3.68507 7.8964 4.06974V4.06974C7.88515 4.86394 7.24607 5.50176 6.46166 5.50168C6.2199 5.49914 5.98308 5.432 5.77517 5.30705V5.30705C5.08881 4.90881 4.21362 5.14824 3.8187 5.84229L3.31756 6.67643C2.92312 7.36961 3.15636 8.25525 3.83929 8.65752V8.65752C4.28321 8.91703 4.55667 9.39664 4.55667 9.91568C4.55667 10.4347 4.28321 10.9143 3.83929 11.1738V11.1738C3.15723 11.5734 2.92373 12.4569 3.31756 13.148V13.148L3.79124 13.9752C3.97627 14.3132 4.28673 14.5627 4.65392 14.6684C5.0211 14.7741 5.41474 14.7272 5.74771 14.5382V14.5382C6.07505 14.3448 6.46512 14.2918 6.83123 14.391C7.19733 14.4902 7.50913 14.7334 7.69732 15.0665C7.82072 15.277 7.88703 15.5168 7.88954 15.7616V15.7616C7.88954 16.564 8.5319 17.2144 9.32429 17.2144H10.2648C11.0545 17.2144 11.6957 16.5682 11.6995 15.7686V15.7686C11.6977 15.3827 11.8483 15.0121 12.1177 14.7392C12.3872 14.4664 12.7532 14.3139 13.1343 14.3158C13.3754 14.3223 13.6113 14.3892 13.8208 14.5104V14.5104C14.5053 14.9098 15.38 14.6736 15.7772 13.9821V13.9821L16.2715 13.148C16.4628 12.8155 16.5153 12.4194 16.4174 12.0476C16.3195 11.6758 16.0792 11.3588 15.7498 11.1669V11.1669C15.4203 10.975 15.1801 10.658 15.0821 10.2862C14.9842 9.91435 15.0367 9.51832 15.228 9.18581C15.3525 8.96586 15.5326 8.78349 15.7498 8.65752V8.65752C16.4286 8.25547 16.6613 7.375 16.2715 6.68338V6.68338V6.67643Z" stroke="#B0BEC5" stroke-width="1.34405" stroke-linecap="round" stroke-linejoin="round"/>
<ellipse cx="9.79787" cy="9.91576" rx="1.97707" ry="2.00194" stroke="#B0BEC5" stroke-width="1.34405" stroke-linecap="round" stroke-linejoin="round"/>
</svg>
