<svg width="79" height="78" viewBox="0 0 79 78" fill="none" xmlns="http://www.w3.org/2000/svg">
<path fill-rule="evenodd" clip-rule="evenodd" d="M41.8553 15.8136L46.2893 24.6718C46.7239 25.5414 47.5627 26.1444 48.5354 26.2839L58.4545 27.7117C60.9052 28.0655 61.8804 31.0357 60.1068 32.7375L52.9341 39.6297C52.2292 40.3075 51.9083 41.2818 52.0751 42.2386L53.7678 51.9689C54.1847 54.3759 51.6228 56.2123 49.4323 55.0736L40.5668 50.4763C39.6977 50.0253 38.6568 50.0253 37.7851 50.4763L28.9196 55.0736C26.7291 56.2123 24.1672 54.3759 24.5866 51.9689L26.2769 42.2386C26.4436 41.2818 26.1227 40.3075 25.4178 39.6297L18.2451 32.7375C16.4715 31.0357 17.4467 28.0655 19.8974 27.7117L29.8165 26.2839C30.7892 26.1444 31.6305 25.5414 32.0651 24.6718L36.4966 15.8136C37.5931 13.6233 40.7588 13.6233 41.8553 15.8136Z" stroke="#90A4AE" stroke-width="5.20397" stroke-linecap="round" stroke-linejoin="round"/>
<path d="M62.8202 9.38379L59.0425 13.1615" stroke="#90A4AE" stroke-width="4.8125" stroke-linecap="round"/>
<path d="M17.4912 9.37854L21.2689 13.1562" stroke="#90A4AE" stroke-width="4.8125" stroke-linecap="round"/>
<path d="M67.8733 46.9696L62.9264 44.9519" stroke="#90A4AE" stroke-width="4.8125" stroke-linecap="round"/>
<path d="M6.15467 46.6551L11.3151 45.2723" stroke="#90A4AE" stroke-width="4.8125" stroke-linecap="round"/>
<path d="M39.0485 71.3929V66.0504" stroke="#90A4AE" stroke-width="4.8125" stroke-linecap="round"/>
</svg>
