<svg width="79" height="78" viewBox="0 0 79 78" fill="none" xmlns="http://www.w3.org/2000/svg">
<path fill-rule="evenodd" clip-rule="evenodd" d="M41.8545 15.8148L46.2885 24.673C46.723 25.5426 47.5619 26.1456 48.5346 26.2851L58.4536 27.7129C60.9044 28.0667 61.8796 31.0369 60.106 32.7388L52.9332 39.6309C52.2283 40.3087 51.9074 41.283 52.0742 42.2398L53.767 51.9701C54.1838 54.3771 51.622 56.2135 49.4315 55.0748L40.5659 50.4775C39.6968 50.0265 38.6559 50.0265 37.7843 50.4775L28.9187 55.0748C26.7282 56.2135 24.1664 54.3771 24.5858 51.9701L26.276 42.2398C26.4427 41.283 26.1219 40.3087 25.417 39.6309L18.2442 32.7388C16.4706 31.0369 17.4458 28.0667 19.8966 27.7129L29.8156 26.2851C30.7883 26.1456 31.6297 25.5426 32.0642 24.673L36.4957 15.8148C37.5922 13.6246 40.758 13.6246 41.8545 15.8148Z" stroke="#FFA600" stroke-width="5.20397" stroke-linecap="round" stroke-linejoin="round"/>
<path d="M62.8226 9.38623L59.0449 13.1639" stroke="#FFA600" stroke-width="4.8125" stroke-linecap="round"/>
<path d="M17.491 9.38073L21.2687 13.1584" stroke="#FFA600" stroke-width="4.8125" stroke-linecap="round"/>
<path d="M67.8748 46.9725L62.9279 44.9548" stroke="#FFA600" stroke-width="4.8125" stroke-linecap="round"/>
<path d="M6.15663 46.6575L11.3171 45.2748" stroke="#FFA600" stroke-width="4.8125" stroke-linecap="round"/>
<path d="M39.0491 71.3934V66.0509" stroke="#FFA600" stroke-width="4.8125" stroke-linecap="round"/>
</svg>
