<svg width="37" height="24" viewBox="0 0 37 24" fill="none" xmlns="http://www.w3.org/2000/svg">
<path d="M29.1875 20.375H27.2C26.5373 20.375 26 19.8377 26 19.175V5.825C26 5.16226 26.5373 4.625 27.2 4.625H29.1875M29.1875 12.5C25.5996 12.5 25 12.5 22 12.5" stroke="#B3B3B3" stroke-width="1.5"/>
<rect x="2.75" y="2.75" width="19.5" height="19.5" rx="4.25" fill="#B3B3B3" stroke="#B3B3B3" stroke-width="1.5"/>
<mask id="path-3-inside-1_1033_59989" fill="white">
<rect x="29.1875" y="2" width="5.25" height="5.25" rx="1.2"/>
</mask>
<rect x="29.1875" y="2" width="5.25" height="5.25" rx="1.2" stroke="#B3B3B3" stroke-width="3" mask="url(#path-3-inside-1_1033_59989)"/>
<mask id="path-4-inside-2_1033_59989" fill="white">
<rect x="29.1875" y="9.875" width="5.25" height="5.25" rx="1.2"/>
</mask>
<rect x="29.1875" y="9.875" width="5.25" height="5.25" rx="1.2" fill="#B3B3B3" stroke="#B3B3B3" stroke-width="3" mask="url(#path-4-inside-2_1033_59989)"/>
<mask id="path-5-inside-3_1033_59989" fill="white">
<rect x="29.1875" y="17.75" width="5.25" height="5.25" rx="1.2"/>
</mask>
<rect x="29.1875" y="17.75" width="5.25" height="5.25" rx="1.2" stroke="#B3B3B3" stroke-width="3" mask="url(#path-5-inside-3_1033_59989)"/>
<path fill-rule="evenodd" clip-rule="evenodd" d="M12.0817 17.604C14.586 17.604 16.8765 15.8034 18.1661 12.802C16.8765 9.80059 14.586 8 12.0817 8H12.0844C9.58013 8 7.28961 9.80059 6 12.802C7.28961 15.8034 9.58013 17.604 12.0844 17.604H12.0817Z" stroke="white" stroke-width="1.3" stroke-linecap="round" stroke-linejoin="round"/>
<path fill-rule="evenodd" clip-rule="evenodd" d="M14.1621 12.8021C14.1621 13.9503 13.2309 14.8808 12.0827 14.8808C10.9345 14.8808 10.0039 13.9503 10.0039 12.8021C10.0039 11.6532 10.9345 10.7227 12.0827 10.7227C13.2309 10.7227 14.1621 11.6532 14.1621 12.8021Z" stroke="white" stroke-width="1.3" stroke-linecap="round" stroke-linejoin="round"/>
</svg>
