<svg width="31" height="22" viewBox="0 0 31 22" fill="none" xmlns="http://www.w3.org/2000/svg">
<path d="M24.4542 18.0171H22.789C22.2337 18.0171 21.7836 17.5669 21.7836 17.0116V5.82623C21.7836 5.27095 22.2337 4.8208 22.789 4.8208H24.4542M24.4542 11.4189C21.448 11.4189 20.9457 11.4189 18.4321 11.4189" stroke="#FFA600" stroke-width="1.25679"/>
<rect x="2.30344" y="3.24998" width="16.3382" height="16.3382" rx="3.56089" fill="#FFA600" stroke="#FFA600" stroke-width="1.25679"/>
<mask id="path-3-inside-1_2488_134708" fill="white">
<rect x="24.4543" y="2.62158" width="4.39875" height="4.39875" rx="1.00543"/>
</mask>
<rect x="24.4543" y="2.62158" width="4.39875" height="4.39875" rx="1.00543" stroke="#FFA600" stroke-width="2.51357" mask="url(#path-3-inside-1_2488_134708)"/>
<mask id="path-4-inside-2_2488_134708" fill="white">
<rect x="24.4543" y="9.21973" width="4.39875" height="4.39875" rx="1.00543"/>
</mask>
<rect x="24.4543" y="9.21973" width="4.39875" height="4.39875" rx="1.00543" fill="#FFA600" stroke="#FFA600" stroke-width="2.51357" mask="url(#path-4-inside-2_2488_134708)"/>
<mask id="path-5-inside-3_2488_134708" fill="white">
<rect x="24.4543" y="15.8179" width="4.39875" height="4.39875" rx="1.00543"/>
</mask>
<rect x="24.4543" y="15.8179" width="4.39875" height="4.39875" rx="1.00543" stroke="#FFA600" stroke-width="2.51357" mask="url(#path-5-inside-3_2488_134708)"/>
<path d="M5.64354 15.135C5.27488 15.135 5.09055 14.954 5.09055 14.5921C5.09055 14.2435 5.27488 14.0693 5.64354 14.0693H6.76962V9.51466L5.91501 10.0274C5.75414 10.1213 5.60668 10.1447 5.47262 10.0978C5.34526 10.0509 5.24807 9.9671 5.18104 9.84645C5.11401 9.7258 5.09391 9.59509 5.12072 9.45433C5.14753 9.30687 5.24137 9.18622 5.40224 9.09238L6.78973 8.25787C6.92379 8.17744 7.05784 8.11041 7.1919 8.05679C7.32596 7.99646 7.44996 7.9663 7.56391 7.9663C7.70467 7.9663 7.82197 8.00652 7.91581 8.08695C8.00965 8.16068 8.05657 8.28469 8.05657 8.45896V14.0693H9.08211C9.45077 14.0693 9.63509 14.2435 9.63509 14.5921C9.63509 14.954 9.45077 15.135 9.08211 15.135H5.64354ZM13.0195 15.2356C12.1816 15.2356 11.5415 14.9205 11.0991 14.2904C10.6567 13.6537 10.4355 12.7488 10.4355 11.5758C10.4355 10.3894 10.6567 9.48785 11.0991 8.87119C11.5415 8.25452 12.1816 7.94619 13.0195 7.94619C13.864 7.94619 14.5041 8.25452 14.9398 8.87119C15.3822 9.48785 15.6034 10.386 15.6034 11.5657C15.6034 12.7454 15.3822 13.6537 14.9398 14.2904C14.4974 14.9205 13.8573 15.2356 13.0195 15.2356ZM13.0195 14.1799C13.4753 14.1799 13.8104 13.9687 14.0249 13.5464C14.2461 13.1242 14.3567 12.4639 14.3567 11.5657C14.3567 10.6676 14.2461 10.0174 14.0249 9.6152C13.8104 9.20633 13.4753 9.00189 13.0195 9.00189C12.5704 9.00189 12.2352 9.20633 12.014 9.6152C11.7928 10.0174 11.6822 10.6676 11.6822 11.5657C11.6822 12.4639 11.7928 13.1242 12.014 13.5464C12.2352 13.9687 12.5704 14.1799 13.0195 14.1799Z" fill="white"/>
</svg>
