<svg width="22" height="22" viewBox="0 0 22 22" fill="none" xmlns="http://www.w3.org/2000/svg">
<path d="M18.2449 10.5415V17.2923C18.2449 18.3332 17.3933 19.1848 16.3525 19.1848H6.01747C4.97661 19.1848 4.125 18.3332 4.125 17.2923V12.8332" stroke="#90A4AE" stroke-width="1.375" stroke-miterlimit="10" stroke-linecap="round" stroke-linejoin="round"/>
<path d="M5.37604 3.6665C4.76099 3.6665 4.19325 4.045 4.004 4.61274L2.86851 7.87726C2.44271 9.06005 3.1997 10.1482 4.57174 10.1482C5.56529 10.1482 6.55884 9.58048 7.03195 8.77618C7.26851 9.58048 8.0255 10.1482 9.01905 10.1482C10.0126 10.1482 10.8642 9.58048 11.2427 8.77618C11.6212 9.58048 12.4728 10.1482 13.4664 10.1482C14.4599 10.1482 15.2169 9.58048 15.4535 8.77618C15.9739 9.58048 16.9201 10.1482 17.9137 10.1482C19.2857 10.1482 19.9954 9.10736 19.5696 7.87726L18.576 4.61274C18.3868 4.045 17.8191 3.6665 17.2513 3.6665H5.37604Z" stroke="#90A4AE" stroke-width="1.375" stroke-miterlimit="10" stroke-linecap="round" stroke-linejoin="round"/>
<path d="M13.2915 18.7918L13.2915 14.7733C13.2915 13.6851 12.3925 12.8335 11.3517 12.8335H11.1624C10.0743 12.8335 9.22266 13.7324 9.22266 14.7733L9.22267 18.7918" stroke="#90A4AE" stroke-width="1.375" stroke-miterlimit="10" stroke-linecap="round" stroke-linejoin="round"/>
</svg>
