<svg width="18" height="19" viewBox="0 0 18 19" fill="none" xmlns="http://www.w3.org/2000/svg">
<g clip-path="url(#clip0_1145_59781)">
<path d="M9 16.5469C13.1421 16.5469 16.5 13.189 16.5 9.04688C16.5 4.90474 13.1421 1.54688 9 1.54688C4.85786 1.54688 1.5 4.90474 1.5 9.04688C1.5 13.189 4.85786 16.5469 9 16.5469Z" stroke="#2AB674" stroke-width="1.2" stroke-miterlimit="10" stroke-linejoin="round"/>
<path d="M8.8125 12.8257C8.59616 12.8257 8.37981 12.7536 8.27164 12.6094C8.16346 12.4652 8.09135 12.2849 8.09135 12.0325V11.4555L7.44231 11.7801C7.29808 11.8522 7.18991 11.8522 7.08173 11.8161C6.97356 11.7801 6.90144 11.6719 6.86539 11.5998C6.82933 11.4916 6.82933 11.3834 6.86539 11.2752C6.90144 11.1671 6.97356 11.0589 7.11779 11.0228L8.09135 10.5541V9.90505L7.44231 10.1935C7.29808 10.2656 7.18991 10.2656 7.08173 10.2296C6.97356 10.1935 6.90144 10.1214 6.86539 10.0132C6.82933 9.90505 6.82933 9.79688 6.86539 9.68871C6.90144 9.58053 6.97356 9.50842 7.11779 9.4363L8.09135 9.00361V7.27284H6.64904C6.21635 7.27284 6 7.05649 6 6.65986C6 6.26322 6.21635 6.04688 6.61298 6.04688H11.012C11.4087 6.04688 11.625 6.26322 11.625 6.65986C11.625 7.05649 11.4087 7.27284 11.012 7.27284H9.53366V8.28245L10.1827 7.99399C10.3269 7.92188 10.4351 7.92188 10.5433 7.95793C10.6514 7.99399 10.7236 8.10217 10.7596 8.21034C10.7957 8.31851 10.7957 8.42669 10.7596 8.53486C10.7236 8.64303 10.6514 8.71515 10.5072 8.78726L9.53366 9.21996V9.86899L10.1827 9.58053C10.3269 9.50842 10.4351 9.50842 10.5433 9.54447C10.6514 9.58053 10.7236 9.68871 10.7596 9.76082C10.7957 9.86899 10.7957 9.97717 10.7596 10.0853C10.7236 10.1935 10.6514 10.3017 10.5072 10.3377L9.53366 10.8065V12.0685C9.53366 12.3209 9.46154 12.5012 9.35337 12.6454C9.2452 12.7536 9.06491 12.8257 8.8125 12.8257Z" fill="#2AB674"/>
</g>
<defs>
<clipPath id="clip0_1145_59781">
<rect width="18" height="18" fill="white" transform="translate(0 0.046875)"/>
</clipPath>
</defs>
</svg>
