<svg width="18" height="19" viewBox="0 0 18 19" fill="none" xmlns="http://www.w3.org/2000/svg">
<path d="M9 16.6172C13.1421 16.6172 16.5 13.2593 16.5 9.11719C16.5 4.97505 13.1421 1.61719 9 1.61719C4.85786 1.61719 1.5 4.97505 1.5 9.11719C1.5 13.2593 4.85786 16.6172 9 16.6172Z" stroke="#808080" stroke-width="1.2" stroke-miterlimit="10" stroke-linejoin="round"/>
<path d="M8.8125 12.896C8.59616 12.896 8.37981 12.8239 8.27164 12.6797C8.16346 12.5355 8.09135 12.3552 8.09135 12.1028V11.5258L7.44231 11.8504C7.29808 11.9225 7.18991 11.9225 7.08173 11.8864C6.97356 11.8504 6.90144 11.7422 6.86539 11.6701C6.82933 11.5619 6.82933 11.4537 6.86539 11.3456C6.90144 11.2374 6.97356 11.1292 7.11779 11.0932L8.09135 10.6244V9.97536L7.44231 10.2638C7.29808 10.3359 7.18991 10.3359 7.08173 10.2999C6.97356 10.2638 6.90144 10.1917 6.86539 10.0835C6.82933 9.97536 6.82933 9.86719 6.86539 9.75902C6.90144 9.65085 6.97356 9.57873 7.11779 9.50661L8.09135 9.07392V7.34315H6.64904C6.21635 7.34315 6 7.1268 6 6.73017C6 6.33353 6.21635 6.11719 6.61298 6.11719H11.012C11.4087 6.11719 11.625 6.33353 11.625 6.73017C11.625 7.1268 11.4087 7.34315 11.012 7.34315H9.53366V8.35277L10.1827 8.06431C10.3269 7.99219 10.4351 7.99219 10.5433 8.02825C10.6514 8.06431 10.7236 8.17248 10.7596 8.28065C10.7957 8.38882 10.7957 8.497 10.7596 8.60517C10.7236 8.71334 10.6514 8.78546 10.5072 8.85758L9.53366 9.29027V9.93931L10.1827 9.65085C10.3269 9.57873 10.4351 9.57873 10.5433 9.61479C10.6514 9.65085 10.7236 9.75902 10.7596 9.83113C10.7957 9.93931 10.7957 10.0475 10.7596 10.1557C10.7236 10.2638 10.6514 10.372 10.5072 10.4081L9.53366 10.8768V12.1388C9.53366 12.3912 9.46154 12.5715 9.35337 12.7158C9.2452 12.8239 9.06491 12.896 8.8125 12.896Z" fill="#808080"/>
</svg>
