<svg width="28" height="28" viewBox="0 0 28 28" fill="none" xmlns="http://www.w3.org/2000/svg">
<path d="M4.62512 16.9167C4.62512 16.4334 4.23337 16.0417 3.75012 16.0417C3.26687 16.0417 2.87512 16.4334 2.87512 16.9167H4.62512ZM14.5835 6.125C14.1003 6.125 13.7085 6.51675 13.7085 7C13.7085 7.48325 14.1003 7.875 14.5835 7.875V6.125ZM5.04553 21.625H6.57063V19.875H5.04553V21.625ZM16.6251 8.2954V19.4546H18.3751V8.2954H16.6251ZM16.2047 19.875H9.74371V21.625H16.2047V19.875ZM2.87512 16.9167V19.4546H4.62512V16.9167H2.87512ZM16.2047 6.125H14.5835V7.875H16.2047V6.125ZM16.6251 19.4546C16.6251 19.6868 16.4369 19.875 16.2047 19.875V21.625C17.4034 21.625 18.3751 20.6533 18.3751 19.4546H16.6251ZM5.04553 19.875C4.81334 19.875 4.62512 19.6868 4.62512 19.4546H2.87512C2.87512 20.6533 3.84685 21.625 5.04553 21.625V19.875ZM18.3751 8.2954C18.3751 7.09672 17.4034 6.125 16.2047 6.125V7.875C16.4369 7.875 16.6251 8.06322 16.6251 8.2954H18.3751Z" fill="#90A4AE"/>
<path d="M24.1668 20.75H26.2501V16.1621C26.2501 12.4827 23.2674 9.5 19.588 9.5H17.5001" stroke="#90A4AE" stroke-width="1.75" stroke-linecap="round" stroke-linejoin="round"/>
<path d="M20.0002 20.75H16.2502" stroke="#90A4AE" stroke-width="1.75"/>
<path d="M10.3754 21.375C10.3754 22.6176 9.36801 23.625 8.12537 23.625C6.88273 23.625 5.87537 22.6176 5.87537 21.375C5.87537 20.1324 6.88273 19.125 8.12537 19.125C9.36801 19.125 10.3754 20.1324 10.3754 21.375Z" stroke="#90A4AE" stroke-width="1.75"/>
<path d="M24.1252 21.375C24.1252 22.6176 23.1179 23.625 21.8752 23.625C20.6326 23.625 19.6252 22.6176 19.6252 21.375C19.6252 20.1324 20.6326 19.125 21.8752 19.125C23.1179 19.125 24.1252 20.1324 24.1252 21.375Z" stroke="#90A4AE" stroke-width="1.75"/>
<path fill-rule="evenodd" clip-rule="evenodd" d="M6.99996 3.5C10.2212 3.5 12.8333 6.11144 12.8333 9.33333C12.8333 12.5546 10.2212 15.1667 6.99996 15.1667C3.77807 15.1667 1.16663 12.5546 1.16663 9.33333C1.16663 6.11144 3.77807 3.5 6.99996 3.5Z" stroke="#90A4AE" stroke-width="1.75" stroke-linecap="round" stroke-linejoin="round"/>
<path d="M5.25 8.16667L7 9.33333L9.33333 7" stroke="#90A4AE" stroke-width="1.75" stroke-linecap="round" stroke-linejoin="round"/>
</svg>
