<svg width="20" height="20" viewBox="0 0 20 20" fill="none" xmlns="http://www.w3.org/2000/svg">
<g clip-path="url(#clip0_2488_134712)">
<path d="M15.6379 13.8967C17.6738 14.4317 19.1666 15.3442 19.1666 16.25C19.1666 17.8608 15.0625 19.1666 9.99992 19.1666C4.93731 19.1666 0.833252 17.8608 0.833252 16.25C0.833252 15.2839 2.30943 14.4275 4.58325 13.8967" stroke="#CFD8DC" stroke-width="1.25" stroke-linecap="round"/>
<path fill-rule="evenodd" clip-rule="evenodd" d="M9.99948 16.6666C8.93417 16.6666 3.33325 12.179 3.33325 7.48615C3.33325 3.81224 6.31734 0.833252 9.99948 0.833252C13.6816 0.833252 16.6666 3.81224 16.6666 7.48615C16.6666 12.179 11.0648 16.6666 9.99948 16.6666Z" fill="#CFD8DC"/>
<path fill-rule="evenodd" clip-rule="evenodd" d="M9.99902 10.7451C11.7143 10.7451 13.2833 9.51179 14.1666 7.45594C13.2833 5.40008 11.7143 4.16675 9.99902 4.16675H10.0008C8.2855 4.16675 6.71659 5.40008 5.83325 7.45594C6.71659 9.51179 8.2855 10.7451 10.0008 10.7451H9.99902Z" stroke="white" stroke-width="0.833333" stroke-linecap="round" stroke-linejoin="round"/>
<path fill-rule="evenodd" clip-rule="evenodd" d="M11.4241 7.45606C11.4241 8.24255 10.7863 8.87994 9.9998 8.87994C9.21332 8.87994 8.57593 8.24255 8.57593 7.45606C8.57593 6.66913 9.21332 6.03174 9.9998 6.03174C10.7863 6.03174 11.4241 6.66913 11.4241 7.45606Z" stroke="white" stroke-width="0.833333" stroke-linecap="round" stroke-linejoin="round"/>
</g>
<defs>
<clipPath id="clip0_2488_134712">
<rect width="20" height="20" fill="white"/>
</clipPath>
</defs>
</svg>
