<svg width="40" height="40" viewBox="0 0 40 40" fill="none" xmlns="http://www.w3.org/2000/svg">
<g opacity="0.9">
<rect width="39.3478" height="39.3478" rx="10" fill="white"/>
<path fill-rule="evenodd" clip-rule="evenodd" d="M28.75 7.96338C29.235 7.96338 29.6283 8.35661 29.6283 8.84168V13.5259C29.6283 14.011 29.235 14.4042 28.75 14.4042C28.2649 14.4042 27.8717 14.011 27.8717 13.5259V8.84168C27.8717 8.35661 28.2649 7.96338 28.75 7.96338Z" fill="#37474F"/>
<path fill-rule="evenodd" clip-rule="evenodd" d="M25.5296 11.1837C25.5296 10.6986 25.9228 10.3054 26.4079 10.3054H31.0921C31.5772 10.3054 31.9704 10.6986 31.9704 11.1837C31.9704 11.6688 31.5772 12.062 31.0921 12.062H26.4079C25.9228 12.062 25.5296 11.6688 25.5296 11.1837Z" fill="#37474F"/>
<path fill-rule="evenodd" clip-rule="evenodd" d="M7.96359 13.5258C7.96359 11.7467 9.40492 10.3054 11.184 10.3054H21.7236C22.2087 10.3054 22.6019 10.6986 22.6019 11.1837C22.6019 11.6688 22.2087 12.062 21.7236 12.062H11.184C10.3751 12.062 9.72019 12.7169 9.72019 13.5258V27.5786C9.72019 28.3876 10.3751 29.0424 11.184 29.0424H26.4078C27.2168 29.0424 27.8717 28.3876 27.8717 27.5786V18.2101C27.8717 17.725 28.2649 17.3318 28.75 17.3318C29.235 17.3318 29.6283 17.725 29.6283 18.2101V27.5786C29.6283 29.3577 28.1869 30.799 26.4078 30.799H11.184C9.40492 30.799 7.96359 29.3577 7.96359 27.5786V13.5258Z" fill="#37474F"/>
<path fill-rule="evenodd" clip-rule="evenodd" d="M20.987 18.1878C20.871 17.9782 20.5669 17.9892 20.4658 18.2043L19.1459 21.0092C19.0221 21.2723 18.7762 21.457 18.4891 21.5027C18.202 21.5483 17.9109 21.449 17.7117 21.2373L16.4528 19.8999C16.322 19.7609 16.0944 19.7823 15.9919 19.9445C15.9919 19.9446 15.9919 19.9445 15.9919 19.9445L14.2308 22.7384C14.1078 22.9334 14.247 23.187 14.4785 23.187H23.2521C23.4749 23.187 23.6165 22.9475 23.5092 22.7523L20.987 18.1878ZM18.8763 17.4566C19.588 15.9434 21.7149 15.8749 22.524 17.3375L25.0467 21.9027C25.8008 23.2695 24.8114 24.9436 23.2521 24.9436H14.4785C12.8644 24.9436 11.8842 23.1666 12.7448 21.8017C12.7448 21.8017 12.7447 21.8018 12.7448 21.8017L14.5061 19.0076C15.221 17.8747 16.8134 17.7201 17.7318 18.6959C17.7319 18.6959 17.7318 18.6959 17.7318 18.6959L18.1061 19.0935L18.8763 17.4566C18.8763 17.4567 18.8763 17.4565 18.8763 17.4566Z" fill="#37474F"/>
</g>
</svg>
